<?xml version="1.0" standalone="no"?>
<!DOCTYPE svg PUBLIC "-//W3C//DTD SVG 20010904//EN"
 "http://www.w3.org/TR/2001/REC-SVG-20010904/DTD/svg10.dtd">
<svg version="1.0" xmlns="http://www.w3.org/2000/svg"
 width="1280.000000pt" height="640.000000pt" viewBox="0 0 1280.000000 640.000000"
 preserveAspectRatio="xMidYMid meet">
<metadata>
Created by potrace 1.15, written by Peter Selinger 2001-2017
</metadata>
<g transform="translate(0.000000,640.000000) scale(0.100000,-0.100000)"
fill="#000000" stroke="none">
<path d="M8364 5085 c-4 -8 -4 -22 -1 -30 4 -8 2 -17 -3 -20 -9 -6 -14 -106
-9 -167 2 -22 -11 -130 -17 -139 -3 -5 -2 -15 2 -21 9 -14 6 -65 -6 -123 -5
-24 -5 -44 1 -51 6 -7 6 -21 1 -35 -5 -13 -10 -67 -11 -119 -2 -52 -4 -115 -5
-140 0 -25 -5 -47 -10 -50 -10 -6 -15 89 -5 96 6 3 5 60 -1 74 -6 13 -5 86 2
95 4 6 4 26 -1 45 -4 19 -4 49 -1 65 4 17 2 38 -3 49 -5 10 -6 37 -3 60 7 51
7 43 1 151 -8 150 -16 178 -55 190 -24 8 -53 -12 -46 -30 2 -7 0 -32 -5 -55
-6 -28 -6 -46 1 -55 5 -6 7 -15 3 -19 -4 -4 -8 -58 -9 -121 -1 -63 -5 -119 -8
-124 -4 -6 -4 -21 -1 -33 3 -13 2 -44 -4 -68 -5 -24 -7 -48 -4 -53 8 -14 8
-82 -1 -96 -14 -23 -24 0 -15 34 6 19 7 41 2 48 -9 15 -12 173 -3 187 4 6 1
43 -5 83 -8 52 -8 78 -1 91 9 13 7 20 -6 30 -11 8 -14 16 -8 22 11 11 -23 72
-45 80 -21 9 -47 -15 -40 -37 3 -9 1 -20 -4 -23 -6 -4 -10 -48 -9 -99 0 -50
-3 -107 -7 -124 -5 -22 -4 -33 4 -33 7 0 8 -8 2 -24 -5 -12 -8 -47 -7 -77 2
-30 -1 -61 -7 -70 -7 -11 -6 -26 1 -47 7 -21 7 -34 1 -38 -6 -3 -9 -29 -8 -57
1 -29 -1 -64 -5 -78 -4 -15 -3 -29 2 -33 11 -6 4 -56 -8 -56 -11 0 -17 50 -10
85 4 17 2 38 -2 48 -5 10 -6 31 -3 47 4 16 4 34 0 40 -4 6 -8 61 -10 123 -1
62 -4 117 -5 122 -2 6 0 18 4 27 4 9 3 26 -4 37 -8 16 -8 27 1 43 10 18 8 24
-9 38 -14 11 -17 21 -12 31 13 21 -27 59 -63 59 -27 0 -29 -2 -24 -32 2 -18 0
-44 -5 -57 -5 -15 -5 -28 2 -36 8 -9 8 -15 1 -20 -6 -3 -9 -20 -7 -38 2 -18 0
-38 -6 -44 -7 -9 -7 -22 0 -43 6 -16 7 -30 3 -30 -13 0 -21 -72 -10 -86 6 -7
7 -18 4 -25 -4 -6 -9 -42 -10 -80 -2 -37 -6 -73 -10 -79 -4 -6 -6 -27 -4 -48
3 -54 0 -72 -10 -72 -6 0 -10 8 -11 18 -1 9 -2 37 -4 62 -1 25 -4 50 -5 55 -2
6 -3 43 -2 84 0 40 -2 78 -6 84 -4 7 -6 38 -6 69 1 32 -3 60 -8 63 -5 4 -6 17
-3 29 4 19 -1 28 -27 46 -47 34 -64 19 -64 -59 0 -33 -3 -61 -8 -61 -4 0 -8
-21 -7 -47 1 -71 -8 -211 -14 -222 -3 -5 -6 -31 -7 -58 -1 -144 -4 -183 -12
-183 -5 0 -7 -20 -5 -45 3 -25 2 -48 -3 -51 -5 -2 -9 -28 -9 -57 -2 -121 -6
-183 -12 -193 -4 -6 -7 -42 -7 -80 1 -38 -4 -88 -9 -112 -6 -24 -6 -44 -1 -48
5 -3 5 -12 0 -22 -5 -9 -9 -45 -9 -80 -1 -93 -6 -102 -55 -103 -23 -1 -46 0
-52 1 -29 6 -61 7 -69 2 -14 -8 -171 -7 -184 2 -7 4 -22 4 -35 0 -27 -8 -238
-8 -266 1 -10 3 -22 2 -25 -3 -3 -5 -29 -8 -58 -6 -29 1 -61 3 -70 3 -14 1
-18 10 -18 36 0 22 -6 38 -15 41 -8 4 -15 19 -15 34 0 16 -4 31 -9 34 -5 3
-12 22 -15 41 -4 19 -12 35 -17 35 -6 0 -8 8 -4 19 6 21 -16 44 -39 39 -8 -2
-28 13 -45 32 -25 29 -32 33 -48 24 -10 -6 -18 -21 -18 -32 0 -11 -3 -24 -7
-28 -5 -4 -8 -20 -8 -34 0 -15 -7 -44 -16 -65 -8 -21 -13 -44 -10 -52 3 -8 0
-24 -6 -36 -7 -12 -14 -35 -15 -52 -4 -54 -10 -79 -25 -115 -9 -21 -12 -41 -7
-51 5 -10 2 -24 -7 -38 -8 -11 -14 -29 -13 -39 3 -22 -9 -68 -27 -107 -13 -30
-14 -30 -15 -5 -1 14 -1 42 0 62 2 21 -1 42 -4 49 -4 6 -8 42 -9 80 -1 37 -5
71 -8 75 -4 4 -4 14 1 23 5 9 3 47 -4 86 -6 39 -8 77 -4 86 7 15 4 44 -8 79
-3 8 -6 47 -7 85 -1 39 -4 75 -7 80 -3 6 -5 45 -4 88 2 42 -1 80 -6 82 -4 3
-6 22 -3 41 2 20 1 41 -2 46 -4 6 -8 26 -10 44 -5 56 -33 104 -60 104 -22 0
-29 -10 -25 -33 1 -4 -5 -15 -14 -23 -8 -9 -15 -31 -15 -49 0 -19 -4 -37 -10
-40 -5 -3 -8 -19 -6 -35 2 -18 -2 -31 -11 -34 -9 -4 -13 -17 -10 -38 2 -20 -2
-37 -10 -43 -7 -5 -15 -31 -17 -57 -2 -25 -9 -56 -16 -67 -6 -12 -10 -27 -9
-34 1 -6 -3 -25 -10 -42 -7 -16 -10 -37 -8 -47 3 -10 1 -21 -4 -24 -5 -3 -9
-18 -9 -34 0 -16 -7 -30 -16 -34 -22 -8 -21 -9 -22 22 -1 58 -13 146 -20 152
-5 3 -9 14 -10 25 0 11 -2 45 -4 75 -2 30 -8 62 -13 70 -5 8 -8 28 -6 43 1 15
-2 34 -8 41 -7 8 -11 27 -11 42 1 31 -8 90 -17 114 -3 8 -5 34 -4 58 2 23 -2
42 -7 42 -5 0 -12 27 -15 60 -7 59 -35 119 -71 150 -23 18 -50 2 -53 -31 -4
-33 -13 -188 -18 -289 -2 -47 -5 -87 -6 -90 0 -3 0 -15 1 -28 1 -13 -4 -29
-10 -37 -8 -10 -8 -24 -1 -49 6 -23 6 -38 0 -42 -6 -3 -10 -24 -9 -47 0 -23
-2 -82 -6 -132 -4 -49 -8 -121 -9 -160 -2 -38 -6 -78 -10 -88 -4 -10 -5 -33
-2 -52 3 -18 2 -36 -1 -40 -4 -4 -8 -43 -9 -88 -2 -70 -8 -160 -12 -177 -5
-17 -25 40 -22 62 1 15 -1 32 -4 38 -6 10 -10 50 -19 196 -1 28 -6 55 -9 61
-3 5 -4 25 -2 43 3 18 0 39 -6 46 -6 8 -8 26 -4 44 4 17 2 36 -3 43 -13 17
-21 77 -10 83 9 5 1 70 -11 89 -3 6 -6 15 -6 20 -1 12 -34 69 -57 99 -14 17
-20 19 -35 10 -10 -6 -18 -18 -18 -27 0 -9 -6 -22 -13 -29 -6 -6 -12 -24 -12
-39 0 -15 -7 -40 -15 -55 -8 -16 -12 -37 -9 -46 3 -10 1 -18 -4 -18 -13 0 -34
-59 -26 -72 3 -5 -2 -20 -11 -34 -9 -14 -15 -33 -14 -42 1 -9 -2 -28 -8 -42
-19 -45 -33 -96 -33 -118 0 -12 -4 -22 -10 -22 -5 0 -10 -7 -10 -15 0 -16 -9
-17 -150 -20 -41 -1 -78 -3 -82 -4 -18 -6 -86 -3 -96 3 -7 4 -27 3 -46 -3 -19
-5 -37 -7 -39 -4 -9 9 -76 13 -81 5 -5 -8 -43 -8 -124 1 -18 2 -35 0 -37 -3
-2 -4 -81 -5 -174 -4 -94 1 -173 -2 -176 -6 -3 -5 -18 -5 -34 0 -16 4 -32 6
-35 3 -3 -3 -20 -6 -38 -7 -30 -1 -33 -4 -31 -29 2 -23 -1 -26 -11 -18 -20 17
-48 2 -45 -23 2 -11 -2 -31 -9 -43 -7 -12 -12 -27 -12 -33 0 -6 -7 -18 -15
-26 -8 -9 -15 -26 -15 -38 0 -13 -7 -29 -15 -36 -8 -7 -17 -28 -21 -49 -9 -56
-15 -71 -25 -71 -6 0 -7 9 -4 20 4 12 2 27 -5 35 -6 8 -9 35 -6 66 2 29 0 64
-5 77 -6 16 -6 29 1 36 6 8 6 24 0 45 -5 18 -7 46 -3 62 3 15 2 36 -2 46 -4
10 -7 51 -7 92 1 41 -2 79 -5 84 -8 14 -7 78 2 100 4 9 2 23 -4 31 -7 8 -9 31
-5 59 4 25 3 54 -1 64 -10 25 -12 86 -3 99 4 6 3 27 -3 47 -5 21 -8 41 -4 46
3 5 1 21 -5 35 -7 19 -6 32 2 46 9 14 9 22 -1 34 -8 9 -10 26 -6 44 3 16 1 40
-4 54 -6 17 -6 29 1 36 7 7 7 20 0 40 -6 17 -6 35 -1 44 5 10 5 27 0 42 -6 13
-7 40 -4 60 3 19 2 43 -2 53 -5 10 -7 25 -6 35 1 9 -3 19 -9 23 -5 3 -10 14
-10 24 0 25 -47 73 -68 69 -17 -3 -28 -39 -37 -126 -2 -24 -8 -49 -12 -55 -4
-7 -8 -25 -10 -42 -1 -16 -5 -52 -8 -80 -3 -27 -7 -57 -7 -65 0 -8 -5 -20 -10
-27 -5 -6 -11 -37 -14 -70 -7 -70 -9 -84 -16 -103 -7 -16 -19 -97 -22 -145 -2
-16 -10 -43 -19 -60 l-16 -30 -1 35 c-3 68 -17 183 -27 210 -3 8 -5 29 -4 46
1 18 -3 35 -9 39 -6 4 -8 15 -5 24 3 10 -1 24 -10 31 -8 7 -12 16 -9 22 8 13
-22 55 -46 63 -35 11 -48 -10 -44 -72 1 -32 0 -62 -4 -68 -4 -5 -7 -62 -8
-125 -1 -63 -5 -122 -8 -130 -3 -8 -5 -50 -3 -93 1 -42 -1 -77 -5 -77 -5 0 -7
-37 -7 -82 1 -46 0 -87 -1 -93 -3 -9 -7 -51 -11 -100 -1 -11 -1 -31 -1 -45 1
-73 -4 -186 -10 -195 -3 -5 -5 -63 -4 -128 0 -64 -3 -117 -7 -117 -4 0 -7 -21
-7 -47 1 -27 0 -63 -3 -80 -4 -18 -1 -35 4 -39 7 -4 7 -10 0 -18 -5 -6 -10
-45 -10 -86 1 -97 1 -94 -15 -81 -7 6 -11 22 -8 36 2 14 0 31 -6 38 -7 8 -7
18 -2 27 5 8 3 24 -5 40 -10 20 -11 30 -3 38 9 9 8 18 0 37 -7 15 -9 37 -6 51
3 13 1 30 -4 37 -6 7 -11 28 -11 47 0 19 -2 58 -5 85 -3 28 -8 73 -9 101 -2
28 -7 56 -11 63 -5 7 -8 47 -8 89 1 42 -4 82 -10 89 -6 7 -8 23 -4 36 3 13 2
27 -2 31 -4 4 -8 17 -8 29 -2 26 -12 124 -19 182 -3 22 -5 59 -5 82 1 23 -4
44 -9 47 -6 4 -8 13 -4 21 3 8 2 23 -2 33 -4 9 -9 25 -10 35 -1 10 -13 30 -28
44 -29 30 -57 25 -57 -9 0 -13 -4 -29 -9 -37 -6 -9 -5 -24 0 -39 6 -14 7 -33
3 -41 -10 -21 -13 -74 -6 -85 5 -9 6 -73 1 -78 -1 -2 -3 -64 -5 -138 -1 -74
-3 -135 -4 -135 -6 0 -8 -52 -3 -65 9 -27 6 -91 -5 -102 -12 -12 -17 -4 -24
37 -3 14 -11 20 -28 19 -14 -1 -29 5 -33 13 -6 9 -17 13 -32 9 -13 -3 -26 -2
-29 3 -7 10 -55 9 -72 -1 -6 -4 -25 -3 -42 1 -17 5 -33 7 -36 4 -8 -8 -100 -9
-112 -1 -6 4 -25 3 -42 -2 -19 -5 -45 -5 -64 0 -17 5 -36 6 -42 2 -12 -8 -104
-7 -112 1 -3 3 -19 1 -35 -3 -16 -5 -31 -5 -34 0 -6 10 -64 8 -82 -3 -6 -4
-23 -3 -38 3 -15 6 -31 7 -37 4 -13 -9 -96 -9 -105 -1 -3 4 -15 7 -25 7 -17 0
-44 43 -40 63 1 4 -5 21 -13 37 -8 16 -15 36 -15 45 0 10 -6 31 -14 48 -8 18
-16 40 -20 50 -3 9 -13 17 -23 17 -10 0 -26 14 -35 30 -22 39 -47 49 -64 25
-7 -10 -11 -22 -8 -27 3 -5 0 -15 -6 -23 -7 -8 -10 -29 -8 -45 3 -17 1 -33 -4
-36 -4 -3 -8 -20 -8 -39 0 -19 -5 -37 -11 -40 -6 -4 -9 -26 -8 -49 2 -23 0
-47 -4 -52 -6 -10 -17 -79 -21 -134 -1 -14 -5 -31 -10 -38 -5 -8 -10 -35 -12
-60 -2 -26 -6 -60 -9 -77 -2 -16 -6 -46 -8 -66 -2 -20 -7 -41 -10 -46 -4 -6
-9 -41 -13 -79 -3 -38 -10 -74 -15 -80 -7 -9 -10 -37 -9 -84 1 -8 -4 -37 -11
-65 -6 -27 -13 -66 -14 -85 -1 -19 -7 -45 -14 -58 -8 -16 -9 -27 -3 -35 7 -8
6 -18 -3 -30 -12 -17 -13 -17 -17 0 -3 10 -3 56 -1 102 1 46 0 88 -4 94 -4 6
-6 46 -5 89 1 42 -3 80 -7 83 -6 3 -6 18 0 37 5 17 5 36 1 42 -4 6 -7 38 -6
71 1 33 -2 70 -7 82 -5 14 -4 25 2 29 6 3 8 18 4 33 -4 14 -9 67 -11 116 -10
226 -12 270 -13 270 -1 0 -3 35 -5 78 -2 43 -6 80 -10 84 -3 3 -1 12 5 19 7 9
8 23 2 41 -5 16 -9 57 -8 93 1 36 -1 75 -6 87 -5 14 -4 25 2 29 6 3 7 19 4 34
-3 15 -8 45 -10 67 -2 21 -4 43 -6 48 -1 6 1 18 5 27 5 10 4 30 -1 45 -6 16
-8 64 -7 107 2 44 1 83 -2 88 -3 4 -7 61 -9 126 -8 225 -12 293 -18 298 -3 4
-3 19 0 35 3 18 1 29 -6 29 -6 0 -11 9 -11 21 0 50 -47 90 -74 63 -9 -9 -14
-20 -10 -25 3 -6 1 -16 -5 -23 -10 -12 -17 -50 -25 -144 -2 -18 -6 -36 -10
-39 -3 -3 -6 -19 -6 -34 0 -15 -4 -30 -9 -33 -7 -5 -19 -82 -23 -146 0 -8 -4
-20 -9 -25 -6 -9 -19 -94 -21 -145 0 -8 -5 -20 -10 -26 -8 -11 -11 -32 -22
-136 -3 -21 -7 -42 -11 -48 -3 -6 -9 -32 -12 -58 -8 -78 -9 -81 -16 -88 -4 -4
-7 -24 -7 -44 0 -20 -5 -41 -10 -46 -6 -6 -13 -35 -16 -65 -9 -94 -12 -112
-28 -182 -8 -38 -15 -72 -14 -75 1 -4 -2 -14 -5 -22 -3 -8 -7 -28 -9 -44 -2
-16 -8 -31 -15 -33 -8 -3 -10 8 -6 36 3 23 1 46 -4 53 -6 7 -14 42 -17 78 -4
35 -11 71 -16 80 -5 9 -5 22 0 29 4 8 2 28 -6 47 -8 18 -11 40 -8 49 4 9 -3
25 -17 39 -13 13 -32 36 -42 50 -22 32 -62 33 -62 1 -1 -11 -4 -26 -9 -33 -4
-7 -10 -39 -13 -70 -2 -31 -5 -66 -6 -77 -1 -11 -6 -26 -10 -33 -5 -7 -7 -25
-6 -40 1 -15 -3 -40 -10 -57 -7 -16 -9 -40 -6 -53 3 -13 1 -29 -4 -36 -6 -7
-10 -26 -10 -42 1 -50 -9 -111 -21 -134 -6 -12 -9 -28 -6 -36 3 -8 1 -35 -5
-62 -6 -26 -12 -67 -14 -92 -7 -79 -12 -106 -19 -118 -4 -7 -9 -35 -11 -63 -2
-28 -6 -54 -10 -57 -9 -9 -26 13 -26 34 1 10 1 28 0 39 0 11 0 44 1 74 0 29
-3 58 -7 64 -4 6 -6 45 -5 86 0 41 -2 79 -5 85 -3 5 -7 48 -8 95 -1 47 -3 86
-5 86 -1 0 -4 34 -6 75 -3 86 -10 205 -18 335 -4 50 -8 128 -10 175 -2 47 -4
85 -6 85 -3 0 -10 150 -10 198 0 50 -6 134 -11 142 -3 6 -5 38 -4 73 2 44 -1
65 -10 68 -7 3 -11 13 -8 23 2 9 -6 29 -18 44 -29 38 -61 33 -70 -9 -3 -18
-10 -40 -14 -50 -4 -11 -9 -32 -11 -49 -6 -58 -9 -70 -21 -78 -7 -4 -13 -23
-13 -40 0 -18 -4 -37 -9 -42 -6 -6 -12 -26 -14 -45 -2 -20 -6 -41 -10 -47 -4
-6 -8 -24 -9 -40 -1 -15 -5 -33 -10 -39 -4 -6 -9 -24 -11 -40 -2 -16 -11 -45
-20 -63 -10 -19 -15 -43 -11 -53 3 -12 -1 -27 -11 -38 -10 -11 -15 -28 -12
-40 5 -19 -6 -65 -24 -102 -5 -10 -9 -28 -9 -41 0 -13 -5 -28 -10 -33 -6 -6
-12 -26 -14 -45 -2 -19 -9 -47 -16 -64 -12 -26 -16 -50 -20 -117 -1 -9 -8 -19
-16 -22 -8 -3 -14 -19 -14 -39 0 -19 -7 -48 -16 -66 -9 -18 -14 -41 -11 -51 3
-11 0 -26 -7 -35 -10 -13 -25 -16 -76 -15 -8 0 -42 0 -75 -1 -33 -1 -68 2 -77
6 -47 19 -61 -19 -28 -73 l20 -33 30 18 c28 16 31 16 46 1 15 -15 19 -15 41
-1 22 14 25 14 43 -2 20 -18 21 -18 44 4 24 22 24 22 38 2 14 -20 14 -20 46 0
37 22 49 44 34 62 -7 8 -6 18 3 31 10 14 11 24 4 38 -8 15 -6 23 12 37 19 15
20 20 9 41 -11 20 -10 25 9 39 18 14 20 21 13 41 -8 20 -6 30 11 48 18 19 19
26 9 42 -10 17 -8 22 13 36 24 16 25 18 10 40 -19 30 -19 31 6 37 18 5 21 11
15 41 -5 28 -3 37 15 49 18 13 19 18 9 37 -10 18 -8 26 10 45 17 18 20 27 12
42 -8 14 -6 23 11 41 18 19 19 26 9 43 -11 17 -10 23 10 39 21 17 22 21 9 41
-12 20 -11 24 10 40 20 15 22 20 12 42 -11 23 -9 27 13 42 24 16 25 17 9 42
-19 28 -18 28 11 37 13 4 26 1 34 -9 10 -13 10 -19 -4 -34 -15 -17 -15 -20 3
-42 18 -22 18 -26 4 -41 -14 -16 -14 -20 1 -43 15 -23 15 -28 2 -47 -14 -20
-14 -24 4 -44 18 -19 19 -22 5 -34 -19 -16 -19 -29 2 -52 15 -17 15 -19 -2
-38 -18 -20 -18 -21 3 -43 20 -21 21 -24 5 -39 -15 -16 -15 -19 1 -43 15 -23
15 -28 2 -47 -14 -20 -14 -24 4 -44 18 -19 19 -22 5 -34 -19 -16 -19 -29 1
-51 14 -16 14 -19 0 -42 -15 -22 -15 -25 3 -41 19 -17 19 -20 4 -42 -14 -23
-14 -26 1 -43 16 -17 16 -22 2 -48 -13 -27 -13 -30 5 -41 18 -12 18 -14 3 -37
-16 -24 -15 -27 1 -45 16 -18 16 -21 2 -44 -15 -22 -15 -25 3 -41 18 -16 18
-19 3 -41 -14 -23 -14 -26 2 -44 16 -18 16 -21 2 -44 -15 -22 -15 -25 4 -42
18 -16 18 -19 3 -35 -15 -17 -15 -20 0 -45 16 -24 16 -27 2 -43 -15 -17 -15
-20 3 -42 18 -22 18 -26 4 -41 -14 -16 -14 -20 1 -44 16 -24 16 -27 2 -43 -15
-16 -15 -20 3 -43 18 -23 19 -27 4 -47 -14 -21 -14 -24 6 -45 l21 -23 -20 -18
-20 -18 21 -24 c22 -22 22 -23 4 -43 -17 -19 -17 -21 -2 -38 21 -23 21 -36 2
-52 -12 -10 -12 -15 2 -36 12 -20 14 -30 5 -49 -10 -21 -8 -27 15 -45 31 -24
56 -26 73 -5 10 12 10 19 2 27 -15 15 -15 43 0 67 9 15 9 25 0 45 -10 22 -9
28 7 38 16 9 17 16 9 40 -8 23 -7 33 7 48 16 18 16 21 2 44 -15 23 -15 25 6
39 18 12 20 18 10 39 -9 20 -8 29 7 49 17 22 17 25 3 42 -15 16 -15 19 7 42
22 23 22 26 7 43 -16 18 -16 20 3 37 24 22 25 38 5 55 -13 10 -12 14 7 30 19
15 21 21 11 42 -10 21 -8 28 10 46 20 21 20 22 3 41 -18 20 -18 21 4 39 19 16
21 22 11 40 -9 18 -8 27 5 48 15 21 15 29 5 46 -11 17 -9 23 8 42 19 21 20 23
4 39 -16 16 -15 18 7 42 22 23 22 26 7 43 -16 18 -16 20 3 37 24 22 25 38 5
55 -13 11 -11 15 11 32 23 19 27 19 42 5 13 -14 14 -21 3 -44 -11 -25 -10 -29
8 -42 20 -13 20 -15 5 -32 -15 -17 -15 -20 5 -48 13 -18 17 -32 11 -36 -15 -9
-12 -36 6 -56 12 -14 13 -22 4 -39 -9 -18 -8 -25 6 -41 14 -16 15 -23 5 -46
-14 -30 -7 -40 36 -52 23 -7 37 -5 50 4 16 12 16 16 4 36 -12 21 -11 25 14 45
24 19 26 24 15 44 -10 18 -8 25 9 44 19 21 20 23 5 45 -17 23 -12 32 19 44 5
1 3 15 -3 31 -9 24 -8 32 9 50 17 19 18 23 5 40 -12 18 -12 22 7 42 17 19 19
26 9 44 -10 18 -8 25 8 43 18 20 19 24 6 41 -12 18 -12 22 7 42 17 19 19 26 9
44 -10 19 -9 24 9 37 19 13 20 17 7 40 -12 24 -12 28 7 44 18 14 20 20 10 41
-10 21 -8 28 9 45 17 18 18 23 7 41 -12 18 -10 24 9 45 21 22 21 24 4 41 -16
16 -16 18 7 37 22 18 23 22 11 45 -12 22 -11 26 8 40 20 14 21 17 8 41 -12 24
-12 28 7 44 20 15 20 19 7 43 -12 24 -12 28 8 42 18 13 20 18 10 40 -9 20 -9
28 3 39 12 12 17 12 33 0 19 -14 19 -15 1 -35 -17 -18 -17 -21 -1 -45 15 -23
15 -27 1 -48 -14 -22 -14 -25 5 -42 19 -17 19 -20 4 -36 -15 -17 -15 -20 0
-45 17 -24 17 -27 0 -45 -16 -18 -16 -20 5 -43 19 -20 20 -24 6 -36 -19 -16
-19 -29 2 -52 15 -17 15 -19 -2 -38 -18 -20 -18 -21 4 -44 l23 -24 -22 -12
c-21 -11 -21 -11 -2 -44 18 -30 18 -34 3 -43 -15 -10 -14 -13 2 -42 17 -29 17
-34 4 -49 -14 -16 -14 -20 3 -42 17 -22 17 -25 2 -37 -16 -11 -16 -14 0 -42
14 -26 15 -32 1 -51 -13 -19 -13 -23 2 -40 16 -18 16 -21 2 -44 -15 -22 -15
-25 3 -41 17 -16 17 -18 2 -45 -16 -28 -16 -30 3 -44 19 -14 19 -15 1 -35 -19
-21 -19 -22 3 -45 19 -20 20 -24 6 -36 -19 -16 -19 -29 2 -52 15 -17 15 -19
-1 -37 -17 -18 -17 -21 0 -46 16 -24 16 -28 1 -42 -15 -15 -14 -19 3 -44 17
-23 18 -28 5 -39 -19 -16 -19 -29 1 -51 15 -16 15 -20 0 -40 -15 -21 -14 -25
4 -45 18 -19 19 -22 5 -34 -19 -16 -19 -29 2 -52 15 -17 15 -19 -2 -38 -17
-19 -17 -21 0 -40 18 -20 18 -22 2 -49 -16 -28 -16 -29 6 -45 22 -15 22 -16 2
-31 -19 -15 -19 -16 -1 -46 16 -27 16 -32 3 -47 -14 -16 -14 -20 3 -42 17 -23
17 -26 3 -42 -14 -16 -14 -20 1 -44 17 -24 17 -27 0 -45 -16 -18 -16 -20 0
-38 14 -15 15 -23 5 -45 -10 -21 -9 -29 4 -44 15 -17 15 -20 1 -41 -15 -20
-15 -24 1 -41 16 -18 17 -21 1 -45 -15 -22 -15 -27 -2 -48 10 -15 12 -27 6
-37 -17 -26 -11 -40 24 -57 51 -24 69 -13 61 40 -5 33 -3 46 9 56 15 13 15 16
0 39 -16 25 -16 27 4 40 18 11 19 18 10 43 -8 25 -7 34 8 50 15 17 16 23 5 41
-11 17 -10 23 8 42 19 20 19 24 6 43 -14 20 -13 23 5 36 18 13 19 18 9 41 -10
22 -9 29 6 47 16 17 17 23 6 41 -11 17 -9 23 10 44 21 23 22 25 6 41 -16 16
-15 18 4 39 17 19 19 26 9 44 -10 19 -9 26 8 43 19 19 19 22 5 44 -16 25 -12
34 20 46 5 1 3 15 -4 30 -10 23 -10 30 6 48 16 17 17 23 6 41 -11 17 -10 23 8
42 19 20 20 24 5 44 -14 21 -14 24 7 40 19 16 20 21 10 41 -11 19 -10 26 5 42
14 16 15 23 5 45 -10 22 -8 28 11 43 20 17 21 19 5 42 -16 23 -16 25 5 41 20
15 21 19 8 42 -12 24 -11 28 8 49 20 22 21 24 5 40 -16 16 -16 18 4 32 19 13
21 19 11 46 -11 32 -1 48 31 49 13 0 12 -3 -6 -47 -2 -6 7 -19 21 -28 22 -14
23 -19 13 -37 -10 -16 -8 -22 12 -39 20 -17 22 -23 13 -44 -9 -20 -8 -26 13
-39 13 -9 40 -16 59 -16 19 0 36 -5 38 -12 3 -7 13 -5 31 7 25 16 29 16 51 2
21 -14 25 -14 40 1 15 15 18 15 45 -1 29 -17 30 -17 45 5 l16 22 16 -22 c14
-21 16 -21 46 -6 27 14 32 14 46 0 14 -14 18 -14 43 1 26 16 29 16 47 0 18
-16 20 -16 37 3 18 19 18 19 43 -1 25 -19 25 -19 47 1 21 20 22 20 39 1 17
-18 20 -19 42 -5 21 14 25 14 46 0 20 -14 23 -14 40 1 18 16 21 16 48 0 28
-17 29 -17 44 5 l16 22 16 -22 c15 -22 17 -22 41 -6 24 15 26 15 20 0 -4 -10
2 -22 19 -33 20 -13 25 -22 20 -44 -4 -23 -1 -28 20 -33 22 -6 24 -10 19 -40
-6 -29 -4 -34 17 -39 38 -11 65 -8 78 9 11 12 10 18 -3 32 -16 15 -15 18 10
44 26 27 26 28 7 49 -18 20 -18 21 0 34 14 11 22 11 36 2 18 -10 18 -13 2 -39
-16 -27 -15 -29 6 -44 22 -15 22 -17 6 -35 -17 -18 -16 -21 3 -47 19 -26 20
-29 4 -39 -15 -10 -15 -13 2 -42 15 -25 16 -35 7 -46 -10 -12 -9 -20 4 -41 14
-20 15 -28 5 -40 -10 -12 -9 -21 5 -46 17 -27 17 -31 2 -46 -14 -15 -14 -18 5
-38 17 -19 18 -25 7 -49 -11 -24 -10 -29 7 -41 16 -12 17 -17 5 -39 -12 -22
-11 -27 4 -44 16 -18 16 -21 1 -44 -15 -24 -15 -26 6 -41 21 -14 21 -16 5 -41
-17 -26 -17 -27 2 -41 18 -12 19 -18 9 -45 -10 -26 -9 -32 6 -44 17 -12 17
-15 3 -38 -15 -22 -15 -25 3 -41 18 -16 18 -20 5 -52 -8 -19 -10 -34 -5 -34
15 0 22 -32 10 -46 -21 -26 49 -89 79 -70 5 3 9 28 10 57 0 29 6 56 13 60 9 5
8 14 -5 34 -17 25 -17 28 0 46 15 17 15 21 1 42 -14 22 -14 26 6 46 l21 21
-21 21 -22 22 22 17 c20 17 20 18 3 45 -17 26 -17 27 0 40 16 11 17 17 6 40
-11 23 -10 31 3 52 15 23 15 26 -2 45 -17 19 -17 20 0 29 20 12 22 32 5 59
-10 15 -9 23 6 39 18 20 18 22 1 41 -17 19 -17 21 -2 38 21 23 21 36 1 53 -15
12 -14 15 6 31 22 18 22 19 5 45 -17 25 -17 27 0 39 16 12 16 17 5 44 -11 27
-10 33 5 50 17 19 17 21 0 40 -17 19 -17 21 -2 38 21 23 21 36 1 53 -15 12
-14 15 6 31 20 16 20 18 5 42 -15 23 -15 27 1 51 16 24 16 27 1 43 -16 15 -15
18 3 37 20 22 20 22 2 45 -19 24 -19 24 1 41 20 16 20 18 4 42 -15 23 -15 26
3 42 17 16 18 19 4 40 -14 21 -14 26 2 50 16 24 16 27 -1 45 -18 20 -18 21 0
34 17 12 18 17 7 42 -11 23 -11 30 2 43 15 14 18 14 32 -1 12 -12 14 -20 5
-36 -16 -30 -14 -40 9 -47 20 -6 20 -7 3 -36 -17 -28 -17 -29 5 -45 22 -15 22
-17 6 -35 -17 -19 -16 -21 12 -50 42 -44 68 -36 71 20 1 28 9 51 22 65 19 21
20 23 4 39 -16 16 -15 18 6 41 19 21 21 27 10 44 -11 18 -10 24 6 42 16 18 17
24 6 42 -11 17 -10 23 8 42 19 20 19 24 7 42 -13 17 -13 21 7 36 19 14 20 19
8 44 -11 25 -10 30 8 43 18 14 18 19 6 41 -12 22 -11 27 7 47 20 22 21 24 4
42 -17 19 -17 20 4 31 16 9 25 8 36 -1 13 -10 12 -14 -2 -30 -16 -17 -15 -20
0 -45 16 -24 16 -27 2 -43 -15 -16 -15 -20 4 -43 17 -23 18 -27 5 -38 -19 -16
-19 -29 2 -52 15 -17 15 -20 0 -35 -14 -14 -14 -19 -1 -45 13 -25 13 -31 -1
-51 -14 -20 -14 -23 7 -39 22 -16 22 -17 4 -36 -17 -19 -17 -21 0 -47 17 -26
17 -28 0 -40 -17 -13 -17 -15 0 -40 14 -22 15 -29 4 -50 -12 -22 -11 -28 5
-45 17 -19 17 -21 0 -40 -17 -19 -17 -21 -1 -39 14 -15 15 -23 5 -45 -10 -21
-9 -29 4 -44 15 -17 15 -20 1 -41 -15 -21 -15 -24 4 -43 l21 -21 -21 -17 c-20
-16 -20 -18 -4 -42 14 -22 15 -30 5 -46 -10 -16 -10 -24 3 -44 14 -21 14 -25
0 -47 -15 -22 -15 -25 6 -41 21 -17 21 -18 2 -35 -19 -17 -19 -18 0 -45 17
-24 18 -29 5 -40 -19 -16 -19 -29 2 -52 15 -17 15 -19 -1 -37 -16 -17 -15 -20
9 -50 15 -17 35 -31 45 -31 20 0 36 33 25 50 -3 5 8 23 25 39 27 24 30 32 21
49 -15 28 -14 29 12 36 20 5 23 11 19 36 -3 23 1 35 19 49 21 17 22 22 12 40
-17 27 -17 28 11 35 22 5 24 10 19 40 -4 29 -2 35 16 41 19 6 21 12 16 36 -5
23 -2 33 17 49 20 17 22 21 10 40 -13 22 -13 22 9 6 21 -14 24 -14 41 1 16 14
23 15 38 5 27 -16 47 -15 54 3 5 14 8 14 31 -1 23 -15 27 -15 49 -1 21 14 26
14 36 2 16 -19 34 -19 50 0 11 13 16 13 43 -1 28 -15 31 -15 43 1 13 17 15 17
40 0 27 -17 28 -17 45 3 16 21 17 21 34 2 17 -19 20 -19 42 -5 21 14 26 14 52
0 28 -14 31 -14 45 6 l14 21 22 -22 22 -22 22 21 c20 19 23 20 38 4 14 -13 21
-14 46 -4 24 10 34 10 51 -1 18 -11 23 -10 37 4 15 15 19 15 41 1 21 -14 25
-14 42 1 18 17 21 17 45 0 25 -16 28 -16 46 1 19 17 21 17 41 -1 21 -19 21
-18 51 15 16 18 27 39 24 47 -3 8 1 17 10 21 12 4 14 14 10 35 -4 23 -1 34 15
47 19 15 20 21 10 40 -10 19 -9 24 11 40 19 16 21 22 11 42 -9 21 -7 27 14 42
22 17 23 21 10 41 -14 20 -13 23 13 38 24 14 28 14 37 -1 8 -11 7 -24 -3 -43
-13 -25 -12 -28 6 -38 19 -10 19 -13 5 -40 -14 -27 -14 -30 6 -43 20 -15 20
-16 3 -42 -16 -25 -16 -27 4 -41 21 -14 21 -16 6 -40 -16 -23 -16 -26 5 -48
19 -20 20 -24 6 -36 -19 -16 -19 -29 0 -50 13 -14 14 -22 4 -44 -11 -22 -10
-28 5 -39 15 -11 16 -16 5 -41 -12 -26 -11 -30 8 -46 22 -17 22 -18 3 -35 -19
-17 -19 -18 0 -45 17 -24 17 -28 4 -42 -13 -13 -12 -18 7 -42 21 -26 21 -28 3
-41 -18 -13 -18 -14 3 -43 20 -27 20 -30 5 -46 -15 -15 -15 -18 5 -38 20 -19
20 -23 6 -45 -15 -22 -14 -25 5 -46 20 -22 21 -24 5 -40 -14 -14 -15 -20 -4
-41 8 -14 11 -32 7 -42 -4 -9 -2 -32 5 -51 8 -25 8 -37 0 -47 -9 -11 -5 -20
19 -40 18 -14 38 -26 45 -26 16 0 38 34 28 44 -6 5 -6 64 -1 101 1 6 -2 19 -6
31 -4 14 -1 26 8 34 14 10 13 15 0 35 -14 21 -14 26 2 50 15 24 15 27 0 44
-15 16 -15 19 4 36 19 17 19 20 4 42 -14 23 -14 26 2 44 15 16 15 23 4 43 -10
20 -10 28 4 47 14 21 14 24 -2 42 -16 18 -16 20 2 33 17 12 17 17 6 44 -11 27
-10 33 5 50 17 19 17 21 0 40 -18 20 -18 21 3 43 20 21 20 24 6 39 -15 15 -15
19 2 48 19 31 19 32 0 45 -18 14 -18 15 4 33 22 18 22 19 5 46 -17 26 -17 27
1 40 16 12 17 18 6 40 -10 22 -9 31 4 52 15 22 15 26 1 42 -14 15 -14 19 4 41
18 22 18 25 3 42 -14 16 -14 19 2 44 16 24 16 27 1 43 -16 15 -15 18 5 39 21
22 21 23 3 43 -17 19 -17 21 0 40 16 18 17 23 4 46 -12 23 -11 27 4 39 17 12
17 16 3 43 -14 27 -14 31 2 45 14 13 20 13 35 2 17 -12 17 -16 4 -41 -13 -25
-13 -29 5 -44 17 -14 18 -19 7 -43 -13 -29 -8 -38 26 -50 6 -2 1 -14 -9 -26
-20 -22 -20 -22 2 -43 19 -20 20 -24 6 -49 -13 -27 -13 -29 12 -42 23 -12 24
-15 10 -26 -21 -18 -20 -34 4 -56 19 -17 19 -19 3 -37 -15 -17 -15 -20 7 -43
22 -24 23 -26 7 -42 -16 -16 -15 -18 5 -40 19 -21 20 -25 7 -49 -13 -25 -12
-28 8 -41 21 -14 21 -16 7 -39 -19 -27 -13 -39 28 -60 43 -22 57 -13 55 37 -1
30 4 45 18 55 16 12 17 17 6 40 -12 27 -8 36 23 47 5 2 5 16 -2 34 -9 28 -8
33 11 46 19 12 20 17 10 39 -10 23 -8 29 13 49 22 21 23 24 8 40 -14 16 -14
19 10 34 22 14 23 20 14 41 -10 20 -8 28 10 47 20 21 21 25 6 45 -14 21 -14
23 8 31 36 14 55 -9 34 -41 -15 -23 -15 -26 3 -42 19 -17 19 -20 4 -42 -14
-22 -14 -26 1 -43 14 -16 15 -23 4 -46 -11 -24 -10 -29 10 -45 l22 -18 -22
-14 c-22 -15 -22 -15 -4 -43 16 -24 16 -31 5 -52 -12 -23 -11 -27 8 -43 22
-17 22 -18 3 -35 -19 -17 -19 -18 0 -45 17 -24 18 -28 4 -42 -14 -14 -14 -18
0 -41 14 -21 15 -29 4 -52 -11 -23 -10 -29 6 -40 16 -12 16 -15 2 -38 -15 -22
-15 -25 3 -41 19 -17 19 -20 4 -42 -14 -23 -14 -26 2 -44 17 -19 17 -21 1 -38
-15 -18 -15 -20 3 -44 18 -23 19 -27 5 -47 -15 -20 -14 -24 2 -42 15 -17 16
-22 3 -45 -12 -24 -12 -28 10 -46 30 -23 74 -20 79 6 2 10 -2 22 -8 26 -10 6
-5 15 14 35 24 24 26 31 17 52 -10 21 -8 27 11 43 21 17 22 21 9 41 -12 20
-11 25 8 40 19 15 20 21 9 44 -10 22 -9 28 10 41 18 13 20 18 10 39 -10 22 -8
29 12 50 19 20 21 27 10 39 -10 13 -8 20 9 42 20 25 20 28 5 45 -15 16 -14 19
5 31 22 14 28 43 10 53 -7 5 -2 16 12 31 20 22 22 28 10 45 -11 18 -9 24 10
45 21 22 21 25 6 42 -16 17 -15 20 11 39 37 27 52 20 45 -22 -4 -27 -2 -34 15
-39 17 -6 20 -13 15 -42 -5 -29 -3 -36 14 -40 16 -4 20 -14 19 -42 -1 -34 1
-36 40 -46 23 -6 49 -17 58 -25 14 -12 19 -11 36 4 18 17 21 17 46 1 24 -16
27 -16 44 -1 17 15 20 15 43 1 22 -15 25 -15 42 4 l18 20 24 -21 c22 -21 24
-22 42 -5 18 17 22 17 42 2 21 -15 25 -14 45 5 l22 21 12 -21 c10 -20 12 -20
41 -6 26 14 32 14 51 1 20 -14 24 -14 40 1 18 16 21 16 47 0 27 -16 29 -16 46
3 18 20 18 20 40 0 22 -20 22 -20 40 0 18 19 18 19 44 -1 l26 -21 20 27 c11
15 33 40 49 57 29 28 29 31 14 56 -15 24 -15 27 4 42 20 16 20 18 4 42 -15 23
-15 26 4 43 19 17 19 20 4 42 -14 23 -14 26 1 43 13 14 14 22 4 43 -9 20 -8
30 5 48 14 21 14 24 -1 42 -17 18 -16 19 4 35 19 15 20 20 9 41 -11 20 -11 28
3 52 15 26 15 30 -1 45 -16 16 -15 18 5 34 20 17 20 19 4 43 -15 23 -15 26 2
41 16 15 19 15 31 1 10 -12 10 -21 0 -45 -11 -27 -10 -32 5 -44 17 -12 17 -14
-1 -41 -18 -28 -18 -28 3 -42 20 -14 21 -15 5 -43 -16 -28 -16 -30 2 -43 18
-13 18 -15 0 -41 -17 -28 -17 -28 5 -45 l22 -17 -20 -18 c-20 -19 -20 -19 -1
-44 19 -23 19 -27 4 -43 -13 -14 -13 -20 -3 -38 10 -15 10 -27 3 -48 -8 -21
-7 -34 4 -51 11 -18 12 -25 2 -37 -17 -20 -7 -41 29 -59 45 -24 62 -12 57 37
-2 23 0 53 6 66 5 16 5 28 -2 35 -15 15 -12 46 5 52 13 5 13 10 -1 36 -14 27
-14 31 2 49 15 17 15 20 1 43 -15 22 -15 25 4 42 17 15 18 20 5 39 -12 18 -12
25 2 48 15 25 15 28 -1 44 -16 16 -16 18 5 40 20 22 21 24 4 42 -17 19 -17 21
3 42 19 21 19 24 5 40 -12 14 -13 22 -4 38 14 26 22 26 46 0 17 -19 18 -21 1
-30 -21 -12 -22 -27 0 -51 15 -17 15 -19 -2 -38 -18 -20 -18 -21 4 -44 19 -20
20 -24 6 -36 -19 -16 -19 -29 2 -52 15 -17 15 -19 -1 -37 -14 -15 -15 -24 -6
-40 6 -12 16 -21 22 -21 6 0 3 -9 -8 -21 -17 -19 -17 -22 -2 -49 14 -25 14
-29 0 -43 -14 -14 -13 -18 2 -41 15 -24 15 -28 0 -51 -16 -24 -16 -27 1 -39
17 -12 17 -17 5 -47 -11 -25 -11 -34 -2 -37 15 -5 16 -34 2 -48 -7 -7 -7 -19
-2 -35 6 -14 6 -34 1 -47 -6 -16 -4 -32 6 -51 10 -20 11 -31 3 -39 -14 -14 13
-58 42 -67 31 -10 46 9 45 57 0 24 2 53 7 65 4 12 3 25 -2 28 -14 8 -13 52 1
57 7 2 7 12 -2 31 -10 22 -10 32 1 52 12 22 11 28 -2 42 -15 14 -15 18 -1 39
19 29 25 30 41 3 11 -17 11 -27 1 -50 -10 -26 -9 -32 7 -43 18 -14 18 -15 0
-35 -17 -19 -17 -23 -4 -43 13 -20 13 -26 1 -45 -12 -18 -12 -25 -1 -42 10
-17 10 -25 0 -42 -10 -16 -10 -24 -2 -35 9 -10 9 -22 1 -45 -7 -21 -8 -36 -1
-44 6 -7 6 -23 1 -41 -4 -16 -4 -40 0 -52 5 -13 6 -34 3 -47 -4 -18 1 -31 20
-50 32 -32 61 -29 62 5 0 14 3 30 6 35 4 6 5 60 3 120 -2 62 0 114 6 121 6 8
5 21 -3 39 -10 21 -9 28 2 35 11 7 11 14 0 39 -11 27 -10 34 3 49 15 17 15 20
0 42 -15 21 -15 24 3 37 18 13 18 15 2 43 -15 27 -15 30 1 44 15 14 19 14 33
0 14 -15 14 -19 -1 -46 -15 -27 -15 -30 3 -43 18 -14 18 -16 3 -33 -21 -23
-21 -31 0 -54 15 -17 15 -19 0 -36 -21 -23 -21 -36 -2 -52 12 -10 12 -15 -2
-36 -14 -23 -14 -26 1 -43 16 -18 16 -21 1 -44 -14 -21 -14 -29 -3 -46 10 -17
10 -25 0 -41 -9 -15 -10 -26 -1 -41 6 -11 7 -28 3 -37 -8 -20 -8 -114 1 -149
3 -14 1 -30 -4 -37 -14 -17 40 -69 66 -64 21 4 21 11 24 173 1 61 6 115 11
122 6 7 4 19 -3 32 -11 16 -11 24 0 44 11 20 11 28 0 45 -11 18 -11 24 3 39
14 15 15 22 3 42 -11 21 -10 29 2 48 14 21 14 25 -1 42 -17 18 -17 20 4 41
l22 22 -21 22 -22 23 22 14 c21 14 21 16 5 47 -15 29 -15 33 -1 38 18 7 19 27
3 53 -9 14 -8 23 5 42 15 21 15 24 0 41 -15 17 -15 19 0 36 21 23 21 36 2 52
-14 12 -13 15 5 34 18 20 18 24 4 44 -13 19 -13 24 2 47 15 24 15 27 0 44 -15
16 -15 19 2 35 17 15 20 15 32 1 10 -12 10 -21 0 -46 -12 -27 -11 -32 4 -41
15 -9 15 -11 -1 -38 -16 -27 -16 -30 0 -48 15 -17 15 -19 0 -34 -15 -16 -15
-19 1 -43 17 -25 17 -28 0 -46 -16 -18 -16 -20 -1 -37 21 -23 21 -31 0 -55
-17 -18 -17 -20 6 -38 l24 -20 -22 -15 c-21 -15 -21 -16 -4 -45 16 -27 16 -30
0 -46 -16 -16 -15 -18 5 -40 21 -22 21 -23 3 -43 -16 -18 -16 -22 -2 -43 13
-20 13 -26 0 -51 -13 -25 -13 -29 4 -41 17 -13 17 -14 0 -33 -17 -19 -17 -22
-3 -44 14 -21 14 -27 2 -44 -13 -16 -13 -22 0 -42 14 -21 14 -26 0 -47 -11
-17 -12 -26 -5 -31 7 -4 9 -23 6 -47 -3 -23 -1 -49 4 -60 7 -11 7 -23 1 -30
-11 -14 -10 -227 1 -244 5 -7 3 -22 -3 -32 -9 -17 -6 -23 19 -36 17 -8 39 -15
51 -15 25 0 37 25 21 44 -8 9 -8 22 -2 38 5 14 6 41 2 59 -6 31 -7 47 -1 67 5
20 1 189 -5 205 -4 10 -2 29 5 41 9 18 9 29 1 45 -9 16 -8 26 4 44 14 22 14
26 0 37 -19 16 -19 30 1 45 15 11 15 14 -1 39 -17 25 -17 27 0 46 17 19 17 21
0 40 -17 19 -17 22 -3 36 12 13 20 14 36 5 20 -11 20 -12 4 -42 -16 -29 -16
-31 2 -44 18 -14 18 -16 3 -33 -21 -23 -21 -31 0 -55 17 -18 17 -19 0 -32 -21
-15 -21 -24 -1 -46 14 -16 14 -19 0 -42 -15 -22 -15 -25 4 -42 l20 -18 -20
-22 c-21 -22 -21 -22 -1 -46 18 -22 18 -25 3 -42 -15 -16 -14 -20 1 -47 16
-27 16 -29 1 -38 -15 -8 -16 -14 -5 -40 9 -22 10 -35 2 -51 -9 -15 -8 -26 1
-41 9 -15 10 -25 2 -38 -7 -10 -8 -28 -3 -47 5 -16 6 -39 2 -50 -10 -32 -11
-89 -3 -100 12 -15 15 -58 6 -73 -13 -21 33 -64 64 -60 l25 3 -1 143 c0 78 3
142 7 142 4 0 3 16 -2 35 -7 24 -6 41 1 55 9 16 8 25 -1 36 -9 12 -9 20 1 38
9 18 9 28 0 46 -9 17 -9 25 4 39 14 16 14 19 0 39 -14 21 -14 25 1 48 16 24
15 27 -2 46 -17 19 -17 20 2 34 19 14 19 16 3 44 -15 27 -15 29 2 45 17 16 18
19 4 40 -14 21 -14 26 2 50 16 24 16 27 -1 45 -18 20 -18 21 1 35 18 13 18 16
2 44 -15 28 -15 30 3 47 19 17 19 18 -1 39 l-20 21 22 22 c21 21 21 22 3 42
-17 19 -17 21 -1 39 14 15 15 23 5 44 -10 21 -9 31 4 50 14 22 14 25 -4 44
-20 20 -20 20 5 36 24 16 26 16 36 -3 8 -16 7 -26 -4 -42 -14 -20 -14 -24 4
-44 18 -19 19 -22 5 -34 -19 -16 -19 -34 0 -50 13 -11 13 -16 -1 -43 -15 -28
-15 -32 1 -43 16 -12 16 -14 -1 -38 -16 -25 -16 -28 1 -46 17 -19 17 -21 0
-40 -18 -20 -18 -21 4 -43 21 -24 21 -24 1 -42 -19 -18 -19 -18 0 -45 17 -24
18 -29 5 -40 -19 -16 -19 -34 0 -50 14 -12 14 -15 0 -30 -19 -21 -19 -29 2
-52 15 -17 15 -19 -2 -38 -16 -18 -16 -22 -2 -43 13 -20 13 -26 0 -51 -14 -26
-13 -29 7 -43 l21 -15 -20 -15 c-20 -14 -21 -16 -5 -42 15 -26 15 -30 0 -53
-15 -23 -15 -26 4 -43 19 -17 19 -19 3 -37 -14 -16 -15 -22 -4 -40 10 -16 10
-26 0 -50 -10 -24 -10 -31 1 -38 10 -6 10 -15 1 -40 -8 -24 -8 -37 0 -46 6 -7
7 -23 3 -36 -4 -13 -6 -45 -5 -73 2 -27 4 -72 5 -99 1 -37 7 -52 25 -68 31
-24 56 -19 58 12 0 14 2 27 3 30 2 3 3 57 5 121 1 63 5 121 9 128 4 6 2 18 -4
26 -10 12 -10 22 0 45 11 26 10 33 -4 49 -15 16 -15 19 4 36 18 16 19 20 5 35
-19 21 -19 34 0 50 12 10 13 16 1 38 -12 22 -12 29 1 49 14 21 14 25 -3 44
-18 20 -18 21 -1 34 21 15 22 38 2 55 -14 12 -13 16 6 37 l22 23 -21 23 -21
23 21 13 c17 11 23 10 35 -2 13 -13 13 -18 -1 -46 -15 -29 -15 -31 3 -43 19
-12 19 -12 0 -36 -17 -23 -18 -27 -4 -42 19 -21 19 -29 -2 -52 -16 -18 -15
-19 6 -34 l22 -16 -20 -22 c-19 -21 -20 -23 -4 -45 15 -22 15 -26 -1 -52 -15
-26 -15 -28 3 -41 19 -13 19 -14 1 -38 -17 -23 -17 -26 -3 -42 13 -15 14 -22
3 -49 -10 -24 -11 -33 -1 -38 9 -6 9 -14 0 -33 -7 -18 -8 -31 -1 -43 6 -12 6
-30 0 -52 -6 -23 -6 -39 1 -47 6 -7 7 -16 3 -20 -4 -4 -8 -74 -8 -154 -1 -81
-3 -151 -4 -157 -10 -42 34 -48 77 -11 24 21 26 26 13 41 -11 13 -11 18 -1 24
8 5 11 23 7 52 -2 24 -1 73 3 109 5 36 5 70 0 76 -5 6 -4 25 1 43 6 22 5 38
-2 50 -9 14 -7 23 5 41 12 18 13 26 4 41 -9 15 -9 24 1 40 11 18 11 24 -3 39
-15 17 -15 20 0 44 14 21 15 29 5 41 -10 13 -10 21 -1 43 l13 27 19 -23 c17
-22 17 -25 2 -48 -14 -23 -14 -26 2 -44 17 -19 17 -21 0 -40 -16 -18 -16 -21
-2 -43 14 -22 14 -26 -1 -40 -14 -14 -14 -20 -2 -42 11 -21 12 -30 2 -46 -9
-14 -9 -25 -2 -39 6 -11 7 -28 2 -42 -5 -13 -7 -58 -6 -100 1 -43 -1 -80 -4
-82 -4 -2 -5 -39 -1 -83 3 -43 1 -84 -4 -90 -12 -17 47 -76 70 -71 21 4 22 14
27 183 2 66 5 120 6 120 7 0 4 113 -3 122 -6 9 -4 22 7 38 13 20 14 28 4 44
-10 16 -9 25 1 44 11 20 11 28 0 45 -11 18 -10 24 5 41 18 20 18 22 1 41 -17
19 -17 21 -2 38 21 23 21 36 2 52 -14 12 -13 16 6 36 22 23 22 24 4 44 -17 19
-17 21 -1 39 14 15 15 23 5 44 -9 20 -8 30 5 48 15 22 14 24 -5 45 l-21 22 21
7 c24 7 25 14 10 48 -9 19 -8 30 5 49 15 23 15 26 -4 43 -19 17 -19 18 2 35
21 16 21 19 6 42 -14 22 -14 25 3 47 18 22 18 25 3 42 -16 18 -16 20 -1 37 21
23 21 36 2 52 -13 11 -12 16 5 39 17 25 18 29 4 43 -14 14 -14 18 1 42 16 24
16 28 2 44 -14 16 -14 19 3 42 18 25 18 25 -2 47 l-20 21 22 12 c16 9 25 9 35
0 12 -10 12 -16 -1 -42 -14 -27 -14 -31 1 -47 14 -16 14 -19 0 -31 -19 -16
-19 -34 0 -50 13 -11 13 -16 -1 -43 -15 -28 -15 -32 0 -43 15 -11 15 -14 -1
-42 -17 -30 -17 -32 1 -45 18 -13 18 -14 0 -42 -17 -27 -17 -28 0 -41 18 -13
18 -15 2 -39 -16 -25 -16 -28 -1 -45 15 -17 15 -20 -1 -46 -18 -26 -18 -27 4
-42 l23 -15 -22 -23 c-22 -23 -22 -24 -4 -44 17 -19 17 -21 1 -39 -17 -18 -17
-21 0 -46 16 -24 16 -27 1 -42 -15 -15 -15 -19 1 -45 15 -26 15 -29 -1 -45
-16 -16 -15 -18 5 -40 l22 -23 -22 -16 c-21 -15 -22 -17 -6 -43 15 -26 15 -30
0 -54 -17 -25 -16 -26 4 -37 l21 -11 -20 -28 c-18 -25 -19 -29 -4 -44 14 -14
14 -20 3 -48 -12 -29 -12 -34 2 -43 15 -9 15 -12 0 -38 -15 -25 -15 -29 1 -46
15 -17 15 -19 0 -34 -14 -14 -14 -21 -3 -47 9 -23 10 -34 1 -45 -8 -9 -8 -21
-2 -39 5 -14 7 -28 4 -31 -9 -9 -10 -246 -1 -252 4 -3 3 -15 -3 -26 -10 -19
-8 -25 17 -45 42 -34 69 -27 70 17 3 74 3 96 3 120 -1 22 0 42 2 115 0 11 0
37 0 57 0 20 4 40 9 43 5 3 3 19 -5 37 -11 28 -11 34 3 44 13 10 14 16 2 43
-11 28 -10 34 6 52 18 21 18 21 -4 39 l-22 19 21 14 c19 14 20 17 5 45 -14 28
-14 31 4 47 19 17 19 19 3 37 -16 18 -16 21 2 50 18 31 18 32 -3 46 l-22 14
21 17 c18 15 19 20 8 44 -11 24 -10 30 4 44 15 15 15 19 -1 45 -16 28 -16 30
1 39 21 12 22 27 0 51 -15 17 -15 20 6 41 l21 24 -20 18 -20 18 21 24 c22 22
22 23 4 43 -17 19 -17 21 -2 38 21 23 21 36 1 53 -15 12 -14 15 6 31 21 17 22
19 5 44 -15 23 -15 27 -1 43 20 22 20 35 1 51 -13 11 -12 16 5 39 17 25 17 29
4 43 -13 13 -14 19 -2 37 16 26 24 26 38 1 8 -15 7 -26 -5 -43 -14 -22 -14
-25 5 -42 l20 -18 -22 -25 -23 -24 22 -18 c22 -17 22 -18 3 -35 -19 -17 -19
-19 -3 -46 16 -26 16 -29 0 -47 -15 -17 -15 -20 -1 -40 14 -21 14 -25 -1 -48
-16 -25 -16 -27 5 -41 l21 -15 -22 -24 -23 -24 21 -22 22 -21 -22 -18 -22 -17
23 -24 c22 -25 22 -25 2 -43 -19 -18 -19 -18 1 -46 l20 -28 -21 -11 c-19 -10
-19 -13 -5 -40 14 -27 14 -32 0 -53 -14 -22 -14 -25 5 -42 l20 -18 -20 -22
c-18 -20 -19 -23 -5 -35 19 -16 19 -34 0 -50 -14 -11 -14 -15 1 -37 14 -22 14
-26 0 -42 -9 -9 -12 -22 -7 -29 9 -16 6 -238 -4 -269 -5 -17 -3 -25 9 -29 15
-6 15 -8 1 -24 -14 -16 -13 -20 14 -49 36 -38 66 -38 67 -1 0 14 4 31 8 39 5
7 6 38 2 69 -3 32 -2 84 3 117 5 38 5 68 -2 83 -7 16 -7 29 2 46 10 17 10 29
2 43 -7 15 -6 25 5 42 15 20 14 24 -2 42 -16 18 -16 20 0 38 14 15 15 23 5 45
-10 22 -9 29 6 46 17 19 17 21 0 40 -17 19 -17 21 -2 38 21 23 21 36 2 52 -14
12 -13 16 6 36 22 23 22 24 4 44 -17 19 -17 21 -2 38 21 23 21 36 1 53 -15 12
-14 15 6 31 20 16 20 18 4 43 -15 24 -15 27 0 44 20 22 20 30 1 51 -14 15 -13
19 4 34 19 17 19 20 4 42 -14 23 -14 26 2 44 16 18 16 22 2 43 -13 21 -13 25
4 46 18 22 18 25 3 42 -16 18 -16 20 -1 37 21 23 21 31 2 52 -14 15 -13 19 4
34 19 17 19 20 4 43 -16 24 -16 26 3 40 18 13 18 16 3 42 -15 26 -15 29 3 51
17 21 17 24 2 41 -14 16 -14 19 2 43 15 24 15 28 1 44 -14 16 -14 19 3 42 18
24 18 25 0 45 -18 20 -18 20 5 37 22 17 24 17 39 -6 13 -21 13 -26 1 -36 -19
-16 -19 -34 0 -50 14 -12 14 -15 0 -30 -19 -21 -19 -29 2 -52 15 -17 15 -19
-2 -38 -16 -18 -16 -21 -2 -43 14 -22 14 -27 0 -46 -14 -20 -13 -24 2 -41 16
-17 15 -20 -1 -45 -18 -27 -17 -28 4 -45 l22 -18 -22 -14 c-20 -13 -20 -15 -5
-44 14 -28 14 -32 0 -47 -15 -14 -15 -18 1 -42 17 -25 17 -28 0 -46 -16 -18
-16 -20 1 -39 17 -19 17 -21 0 -47 -17 -26 -17 -27 3 -43 l21 -17 -22 -21 -21
-22 22 -23 23 -24 -22 -15 c-21 -14 -22 -15 -4 -41 16 -25 16 -29 2 -45 -15
-16 -15 -20 -1 -40 13 -19 13 -25 0 -50 -13 -25 -13 -31 -1 -43 13 -12 13 -18
1 -41 -12 -23 -12 -29 0 -39 9 -7 12 -19 8 -28 -11 -27 -13 -245 -2 -258 7 -9
7 -13 -1 -13 -21 0 -11 -31 19 -62 26 -25 33 -28 46 -17 8 7 13 21 11 31 -3
10 -1 20 4 23 5 4 8 39 8 80 -1 41 2 78 5 84 4 5 2 12 -4 16 -13 8 -13 48 0
61 7 7 8 19 1 37 -7 19 -7 35 1 52 8 19 8 28 -2 40 -10 12 -9 20 5 42 16 24
16 27 1 38 -20 15 -20 25 0 40 15 10 15 14 1 42 -15 27 -14 31 0 46 14 14 15
20 4 40 -11 21 -10 29 4 51 17 26 17 27 -1 40 -18 14 -18 15 -1 33 21 24 21
32 2 53 -14 15 -13 18 3 33 18 16 20 16 36 -2 16 -18 16 -21 2 -43 -14 -22
-14 -26 0 -47 15 -20 15 -24 -2 -42 -16 -18 -16 -20 0 -38 17 -18 17 -21 0
-45 -16 -25 -16 -28 0 -45 15 -17 15 -20 1 -34 -12 -13 -13 -20 -3 -41 8 -20
8 -32 -1 -52 -9 -20 -9 -30 0 -40 7 -8 8 -25 4 -41 -12 -44 -13 -137 -2 -151
6 -8 5 -17 -3 -27 -17 -20 -7 -41 29 -59 42 -22 61 -12 59 32 -1 21 1 71 4
113 4 42 2 82 -2 89 -5 8 -3 25 6 42 11 22 12 32 3 46 -10 15 -9 24 4 43 15
21 15 24 0 41 -15 17 -15 19 1 37 14 15 15 23 5 44 -9 20 -8 30 5 48 14 21 14
24 -1 41 -15 17 -15 19 1 37 14 16 15 23 6 41 -9 17 -8 26 5 47 16 23 15 26
-1 45 -18 19 -18 20 4 36 21 16 21 19 6 40 -14 21 -14 25 1 48 15 23 15 27 1
42 -13 15 -13 20 4 42 17 22 17 27 4 41 -13 14 -13 20 3 49 17 29 17 33 2 43
-16 10 -15 13 4 39 19 26 19 29 4 46 -15 17 -15 19 0 35 14 14 15 21 4 43 -10
22 -9 30 5 45 15 17 15 21 1 42 -13 21 -13 25 4 46 18 22 18 25 3 42 -16 18
-16 20 0 38 14 15 15 23 5 44 -9 21 -9 30 0 41 11 14 16 13 38 -1 l25 -17 -22
-18 c-21 -17 -22 -19 -5 -44 15 -23 15 -27 1 -43 -20 -22 -20 -30 1 -53 15
-17 15 -19 -2 -38 -17 -19 -17 -21 -1 -39 17 -18 17 -21 0 -45 -16 -25 -16
-28 2 -47 18 -20 18 -21 -1 -35 -18 -14 -18 -16 -3 -41 14 -24 14 -29 1 -50
-14 -21 -14 -25 2 -43 18 -20 18 -21 -1 -35 -18 -13 -18 -15 -2 -44 14 -26 14
-32 2 -42 -18 -15 -18 -28 3 -51 15 -17 15 -19 -2 -38 -16 -18 -16 -22 -3 -42
13 -19 13 -25 -1 -51 -12 -23 -13 -31 -3 -34 17 -6 15 -38 -3 -53 -12 -10 -12
-15 2 -36 14 -23 14 -26 -1 -43 -11 -12 -13 -21 -7 -25 10 -7 9 -151 -1 -162
-4 -3 -2 -18 4 -34 6 -19 6 -35 -1 -49 -9 -17 -6 -22 23 -40 40 -25 50 -26 67
-5 9 11 10 20 2 32 -6 11 -7 26 -1 42 5 13 6 42 3 63 -4 22 -2 43 4 51 7 8 7
23 2 43 -6 20 -5 35 1 41 7 7 7 20 0 40 -8 23 -7 33 5 45 15 14 15 18 0 40
-15 23 -15 26 4 43 18 16 18 19 3 41 -14 23 -14 26 0 42 20 22 20 35 0 52 -15
12 -14 15 6 31 21 17 22 19 5 44 -16 25 -16 27 4 48 l21 23 -20 18 -20 18 21
23 c19 21 20 24 5 46 -15 23 -15 26 4 43 19 17 19 20 4 42 -14 23 -14 26 0 42
20 22 20 35 1 51 -14 12 -13 16 6 36 21 23 22 25 4 43 -16 19 -16 21 -1 36 20
21 20 34 0 56 -14 16 -14 18 5 29 25 13 27 33 6 50 -14 12 -13 16 6 36 21 23
21 25 5 43 -16 18 -16 21 -1 44 13 20 14 30 5 46 -8 16 -7 26 7 47 16 25 16
27 -1 40 -18 12 -17 14 3 40 20 25 20 29 5 45 -14 16 -14 19 2 43 15 24 15 28
1 44 -14 15 -14 19 4 41 19 23 19 25 2 43 -17 19 -17 20 1 34 16 12 17 17 6
43 -10 25 -9 34 4 52 14 21 14 24 -1 41 -13 14 -13 20 -3 33 15 18 32 19 47 4
8 -8 6 -19 -6 -40 -15 -28 -15 -31 3 -44 18 -14 18 -15 1 -41 -17 -27 -17 -28
5 -46 22 -18 22 -19 5 -32 -16 -12 -17 -17 -6 -44 10 -23 10 -35 1 -52 -9 -18
-8 -25 6 -41 16 -18 16 -20 -1 -39 -18 -20 -18 -21 2 -41 20 -20 20 -23 4 -50
-15 -27 -15 -29 4 -43 19 -14 19 -15 1 -35 -18 -20 -18 -22 -1 -41 15 -17 16
-23 5 -51 -12 -28 -11 -33 4 -45 17 -12 17 -14 0 -39 -18 -27 -17 -28 4 -45
21 -17 21 -18 2 -35 -19 -17 -19 -20 -4 -43 13 -20 14 -29 5 -50 -10 -20 -9
-28 3 -40 13 -13 13 -18 0 -44 -14 -27 -14 -31 3 -43 17 -13 17 -15 0 -44 -17
-29 -17 -30 3 -41 19 -10 19 -12 4 -41 -14 -28 -14 -32 0 -48 14 -15 14 -19
-1 -34 -13 -13 -14 -19 -3 -32 8 -9 10 -28 7 -51 -3 -19 -1 -46 5 -59 8 -19 8
-28 -3 -41 -12 -14 -10 -19 15 -41 16 -13 38 -23 50 -21 18 3 21 10 23 53 1
28 4 58 7 69 3 10 0 27 -7 37 -8 13 -8 24 2 42 10 19 10 29 1 47 -9 17 -9 25
4 39 14 16 14 19 0 40 -15 20 -15 24 1 41 17 18 17 21 1 46 -17 24 -17 26 0
38 15 12 16 17 4 45 -11 28 -11 33 5 45 17 12 17 14 0 40 -17 26 -17 27 1 41
18 13 18 16 2 44 -15 28 -15 30 2 46 17 16 18 19 4 40 -14 21 -14 26 2 51 17
25 17 27 1 39 -17 12 -16 14 0 44 17 31 17 32 0 42 -17 10 -16 12 3 39 17 24
18 29 5 40 -19 16 -19 29 2 52 15 17 15 19 -2 38 -17 19 -17 21 -2 38 21 23
21 36 2 52 -14 12 -13 16 6 36 22 23 22 24 4 44 -17 19 -17 21 0 40 16 18 16
21 2 44 -15 22 -15 25 2 40 16 15 19 15 34 -2 15 -17 15 -19 0 -34 -15 -16
-15 -19 0 -42 14 -21 15 -30 5 -52 -11 -24 -10 -28 10 -42 l22 -14 -23 -18
c-22 -18 -22 -18 -2 -40 16 -18 17 -25 7 -52 -10 -27 -9 -32 9 -47 19 -15 20
-18 5 -30 -20 -17 -20 -30 1 -53 15 -17 15 -19 -1 -37 -15 -17 -15 -20 3 -42
18 -22 18 -26 4 -41 -14 -16 -14 -20 1 -42 13 -21 14 -30 4 -52 -10 -22 -10
-28 6 -39 16 -12 16 -16 2 -43 -13 -26 -13 -30 2 -46 14 -13 14 -20 4 -36 -10
-16 -10 -26 2 -48 10 -20 11 -31 2 -45 -9 -15 -6 -22 18 -43 16 -14 38 -24 50
-22 19 3 21 8 18 59 -2 32 1 60 7 63 7 5 7 14 -1 31 -8 19 -8 32 1 51 10 22 9
30 -4 44 -14 15 -13 18 3 33 18 16 19 16 30 -8 7 -15 8 -27 2 -30 -6 -4 -10
-15 -10 -26 0 -23 60 -55 84 -46 17 7 22 42 7 51 -10 7 -3 44 11 62 5 7 5 22
-1 36 -7 18 -5 30 9 48 17 22 17 26 3 42 -13 15 -13 19 6 39 18 20 19 24 5 43
-13 19 -12 22 7 36 18 14 19 19 8 43 -11 24 -10 30 9 50 20 22 21 24 5 40 -16
16 -15 18 7 42 22 24 23 26 7 42 -16 16 -15 18 5 40 19 21 20 24 5 46 -15 23
-15 25 10 36 21 10 29 9 41 -3 14 -14 14 -18 -3 -36 -18 -20 -18 -21 4 -44 19
-20 20 -24 6 -36 -19 -16 -19 -29 1 -51 14 -16 14 -19 0 -42 -15 -22 -15 -25
4 -42 19 -17 19 -20 4 -36 -15 -17 -15 -20 0 -43 13 -21 14 -30 4 -52 -10 -22
-10 -28 6 -39 16 -12 16 -16 2 -43 -15 -28 -14 -31 7 -45 22 -14 22 -15 3 -36
-18 -20 -19 -22 -1 -41 16 -18 17 -23 5 -45 -12 -22 -11 -27 5 -45 17 -19 17
-21 0 -40 -17 -19 -17 -21 0 -40 16 -17 16 -24 6 -47 -11 -25 -10 -29 10 -46
13 -10 36 -17 53 -16 17 1 39 -2 49 -6 11 -5 24 -2 35 9 17 14 20 14 35 -1 16
-16 19 -16 45 -1 26 16 30 16 45 1 14 -14 18 -15 38 -1 21 13 26 13 51 -1 27
-15 30 -15 42 2 7 9 21 17 31 17 9 0 30 9 46 21 29 20 29 22 14 45 -15 23 -14
25 10 34 27 10 28 14 15 45 -5 14 -2 26 13 43 18 19 19 26 9 42 -16 26 -15 27
7 33 31 8 42 -12 25 -44 -13 -26 -13 -30 5 -41 18 -11 18 -14 4 -41 -14 -27
-13 -30 6 -43 18 -13 18 -17 6 -41 -12 -24 -12 -29 1 -44 11 -13 12 -22 4 -45
-10 -24 -8 -30 10 -44 19 -15 20 -18 6 -29 -20 -17 -20 -30 0 -52 13 -14 13
-21 3 -37 -10 -17 -10 -25 5 -47 16 -25 17 -29 2 -43 -14 -15 -14 -18 6 -39
20 -21 20 -24 5 -41 -15 -17 -15 -20 0 -41 12 -18 14 -28 5 -42 -9 -13 -8 -25
4 -49 13 -24 13 -34 4 -46 -10 -12 -9 -18 6 -35 51 -57 83 -47 81 24 -1 29 2
57 6 64 4 6 2 24 -4 39 -8 23 -7 31 6 40 15 11 15 15 1 41 -13 27 -13 30 5 41
18 11 18 15 5 41 -14 26 -14 30 4 46 19 17 19 20 4 42 -14 23 -14 26 0 42 20
22 20 35 0 52 -14 11 -13 15 7 30 21 15 22 20 11 44 -11 23 -10 30 4 46 15 17
15 20 0 43 -15 24 -15 26 6 40 20 14 20 16 4 41 -16 25 -16 27 5 44 21 17 21
19 5 43 -15 23 -15 26 4 43 19 17 19 20 4 43 -15 22 -14 25 5 46 l21 23 -20
18 -21 19 22 17 c21 15 22 20 10 45 -11 25 -10 30 6 41 17 13 17 15 1 43 -16
27 -15 29 4 42 20 13 20 15 4 45 -15 30 -15 32 5 38 30 10 42 -7 28 -39 -11
-23 -10 -28 6 -40 17 -12 18 -17 7 -41 -11 -23 -10 -30 3 -45 13 -14 14 -22 4
-43 -10 -23 -9 -29 11 -45 20 -16 21 -19 6 -31 -22 -18 -20 -37 4 -54 18 -13
19 -16 5 -27 -19 -16 -19 -29 2 -52 14 -16 14 -22 3 -43 -11 -21 -11 -27 4
-44 14 -15 15 -23 5 -45 -11 -22 -10 -28 5 -39 15 -11 16 -17 5 -40 -10 -23
-10 -30 5 -46 14 -15 15 -23 5 -45 -11 -24 -10 -28 10 -42 21 -15 21 -17 6
-34 -13 -14 -14 -23 -6 -39 26 -48 87 -52 78 -5 -3 18 3 32 23 52 22 23 25 32
18 52 -7 20 -5 27 14 41 19 15 21 20 10 43 -11 24 -10 27 13 36 22 8 23 12 14
42 -5 18 -9 33 -9 34 0 1 10 4 21 7 18 5 21 11 15 40 -5 27 -3 36 10 41 22 8
36 7 54 -4 13 -8 12 -11 -5 -24 -19 -14 -19 -15 -2 -45 14 -24 15 -34 5 -55
-10 -22 -9 -28 6 -39 15 -11 16 -17 5 -41 -12 -25 -11 -30 10 -45 20 -15 21
-19 7 -30 -20 -17 -20 -30 0 -52 15 -17 15 -20 0 -44 -15 -23 -15 -25 4 -37
24 -15 25 -31 5 -48 -14 -12 -13 -15 5 -35 19 -20 19 -24 6 -50 -14 -27 -14
-30 5 -43 17 -12 18 -15 4 -35 -13 -19 -13 -23 7 -44 21 -22 21 -23 3 -43 -18
-20 -18 -21 2 -42 20 -20 21 -22 5 -46 -15 -23 -15 -26 7 -44 23 -18 23 -19 5
-32 -19 -14 -18 -15 3 -44 20 -27 20 -31 6 -45 -15 -14 -15 -18 1 -42 13 -20
14 -29 5 -47 -10 -19 -8 -25 16 -45 15 -13 37 -23 49 -21 18 3 21 9 18 49 -2
35 1 48 13 53 12 4 14 14 10 39 -5 27 -3 36 10 41 14 5 16 14 11 40 -5 27 -3
37 10 44 13 7 15 17 11 41 -5 24 -2 33 13 41 16 9 18 15 9 37 -8 21 -6 30 12
49 17 19 19 26 9 44 -10 18 -9 24 1 31 8 5 18 9 23 9 8 0 5 18 -9 52 -4 11 0
18 15 23 18 6 21 12 16 38 -5 23 -1 36 14 52 18 19 18 23 6 41 -13 17 -12 21
11 40 23 18 24 22 12 41 -11 19 -10 24 12 42 19 16 22 22 12 32 -18 18 -16 34
2 19 13 -10 19 -10 34 4 18 17 21 17 45 0 25 -16 28 -16 46 1 19 17 21 17 39
1 18 -16 21 -17 45 -1 30 20 42 51 27 69 -12 14 -246 16 -269 2 -8 -5 -11 -17
-9 -28 4 -14 1 -18 -8 -14 -19 7 -46 -20 -39 -38 3 -8 -2 -26 -11 -40 -10 -14
-15 -33 -11 -41 3 -9 -1 -27 -10 -41 -9 -13 -14 -33 -11 -44 3 -11 1 -23 -4
-26 -5 -3 -9 -16 -9 -30 0 -14 -6 -31 -13 -38 -7 -7 -13 -28 -12 -47 0 -19 -3
-37 -7 -40 -7 -4 -21 -68 -32 -137 -1 -7 -8 -18 -14 -24 -7 -7 -12 -27 -12
-45 0 -47 -20 -41 -21 7 -1 22 -3 55 -5 73 -2 17 -3 55 -3 84 0 28 -5 55 -11
58 -6 4 -11 19 -10 33 1 15 1 32 0 37 -1 6 -1 29 0 53 1 26 -3 42 -10 42 -7 0
-9 8 -5 19 3 10 1 30 -4 43 -5 15 -6 29 -1 34 5 5 5 27 -1 52 -5 23 -8 56 -7
71 1 16 -2 35 -8 43 -5 7 -9 45 -9 83 1 39 -2 75 -7 81 -5 7 -8 25 -8 40 2 45
-11 88 -29 102 -9 7 -15 16 -13 20 1 4 -7 20 -19 35 -26 36 -63 34 -65 -3 -1
-25 -15 -66 -35 -107 -7 -12 -11 -33 -11 -47 0 -14 -7 -31 -14 -37 -8 -6 -14
-24 -14 -40 0 -15 -4 -31 -10 -34 -5 -3 -10 -21 -10 -40 0 -20 -6 -35 -15 -39
-8 -3 -16 -16 -16 -28 -1 -20 -2 -21 -6 -3 -2 11 -7 27 -10 35 -3 8 -7 44 -9
80 -2 36 -6 81 -9 100 -2 19 -6 64 -9 99 -3 35 -9 67 -13 70 -4 3 -9 40 -11
81 -1 41 -7 102 -12 135 -8 56 -16 123 -25 220 -9 93 -15 120 -24 123 -6 2
-11 12 -11 21 0 24 -41 61 -68 61 -12 0 -22 -3 -23 -7 0 -5 -2 -35 -4 -68 -2
-33 -6 -69 -10 -80 -15 -42 -15 -48 -5 -61 8 -9 7 -21 -4 -42 -8 -16 -12 -32
-9 -36 10 -9 4 -88 -8 -102 -5 -6 -6 -25 -3 -43 4 -17 2 -37 -5 -44 -7 -9 -8
-24 -1 -45 5 -21 5 -32 -1 -32 -6 0 -10 -17 -8 -37 1 -21 -1 -45 -4 -53 -13
-36 -16 -69 -7 -75 6 -4 6 -15 0 -31 -5 -13 -10 -35 -10 -47 0 -34 -7 -112
-10 -112 -3 0 -12 -112 -13 -183 -2 -47 -5 -61 -15 -57 -8 3 -15 5 -17 5 -2 0
1 14 7 30 7 23 7 34 -2 45 -7 9 -10 27 -7 45 4 16 2 32 -4 36 -7 4 -9 22 -5
45 3 21 2 40 -2 43 -5 3 -10 22 -11 43 -1 21 -4 58 -6 83 -2 25 -5 54 -5 65
-1 10 -6 25 -11 32 -6 6 -8 17 -5 22 4 6 -7 25 -23 43 -25 27 -33 31 -48 22
-10 -6 -18 -21 -18 -32 0 -11 -3 -24 -7 -28 -5 -4 -8 -17 -8 -29 0 -13 -7 -28
-15 -35 -8 -7 -13 -25 -12 -44 2 -17 -3 -36 -10 -41 -8 -6 -15 -26 -17 -45 -2
-19 -9 -48 -15 -63 -6 -16 -9 -32 -6 -37 3 -4 -2 -13 -9 -20 -8 -6 -18 -24
-21 -40 -3 -16 -14 -31 -23 -35 -15 -6 -88 -10 -94 -5 -9 7 -168 7 -173 0 -8
-14 -45 1 -46 19 0 9 -2 45 -5 81 -2 36 -4 95 -5 132 0 37 -4 70 -10 73 -5 4
-6 17 -3 31 3 13 3 32 -1 41 -4 10 -7 53 -7 95 1 43 -3 80 -9 84 -5 3 -7 14
-4 24 3 9 1 29 -4 43 -7 18 -7 28 0 33 6 3 7 19 3 37 -7 34 -10 64 -19 192 -8
132 -12 165 -18 172 -4 3 -1 15 5 26 9 17 7 24 -9 37 -11 8 -18 21 -15 28 5
17 -54 73 -71 66 -16 -6 -26 -53 -33 -148 -2 -32 -9 -64 -14 -71 -6 -7 -13
-48 -16 -91 -3 -43 -10 -82 -16 -85 -5 -3 -10 -27 -10 -53 -1 -33 -4 -43 -13
-36 -7 6 -10 36 -8 81 1 39 -1 98 -6 131 -4 32 -4 61 0 64 8 5 9 64 2 77 -3 5
-6 91 -7 192 -1 123 -6 188 -14 197 -9 11 -9 17 0 26 10 10 5 20 -20 45 -26
26 -35 30 -50 21 -20 -13 -20 -18 -24 -179 -2 -66 -7 -125 -10 -131 -4 -6 -5
-27 -3 -46 2 -19 0 -50 -5 -68 -6 -21 -6 -39 0 -51 7 -12 6 -26 -1 -43 -7 -14
-8 -33 -4 -43 5 -10 7 -22 6 -28 -2 -5 -3 -21 -3 -35 0 -14 -4 -30 -9 -36 -6
-7 -5 -22 1 -39 8 -20 7 -31 -1 -41 -7 -8 -9 -31 -6 -55 4 -30 2 -37 -6 -30
-8 6 -12 38 -11 85 1 42 -2 79 -7 82 -5 2 -6 18 -2 34 3 16 2 37 -2 47 -4 10
-7 45 -7 78 0 33 -4 68 -10 78 -6 12 -6 23 1 31 6 8 9 21 6 30 -3 9 -8 24 -11
34 -3 9 -7 49 -8 89 -1 40 -5 75 -9 79 -3 4 -2 15 3 24 7 13 5 27 -5 46 -10
20 -11 32 -4 40 6 7 8 23 4 34 -4 12 -8 36 -10 53 -9 76 -14 90 -39 115 -21
22 -30 25 -44 16 -9 -6 -17 -20 -18 -30 -1 -11 -2 -21 -4 -24 -8 -16 -7 -80 1
-85 5 -4 7 -11 3 -16 -3 -6 -7 -41 -8 -78 -2 -37 -5 -72 -8 -77 -9 -16 -8 -83
2 -89 5 -3 6 -15 1 -29 -5 -12 -8 -51 -7 -85 1 -34 -2 -65 -6 -67 -4 -3 -6
-23 -4 -46 3 -22 0 -52 -5 -66 -5 -13 -6 -30 -1 -36 6 -10 8 -83 2 -96 -2 -4
-6 -101 -9 -225 -1 -24 -5 -35 -10 -30 -13 13 -17 67 -7 83 4 7 5 25 1 39 -9
36 -21 272 -28 550 -1 45 -4 84 -7 87 -3 3 -5 43 -3 90 2 47 -1 87 -6 91 -6 3
-6 17 1 35 7 21 7 34 0 43 -6 6 -13 35 -16 62 -6 57 -46 105 -71 85 -22 -18
-40 -117 -25 -135 6 -7 8 -14 5 -17 -3 -2 -7 -27 -10 -54 -9 -76 -16 -158 -16
-171 1 -7 1 -19 1 -25 1 -7 -2 -38 -5 -68 -4 -30 -9 -86 -11 -125 -3 -38 -6
-95 -9 -125 -2 -30 -4 -64 -4 -75 -1 -11 -1 -29 -2 -40 -1 -11 -2 -50 -3 -87
0 -38 -4 -68 -7 -68 -11 0 -17 -74 -7 -87 6 -7 5 -19 -2 -32 -14 -27 -23 -27
-15 -1 4 12 2 27 -4 34 -8 10 -8 22 -1 41 6 15 7 33 2 39 -4 6 -7 34 -5 61 2
28 3 55 4 60 0 6 -1 41 -3 78 -2 38 -1 70 3 73 8 5 6 60 -3 69 -3 4 -2 20 3
37 4 17 6 35 3 40 -9 14 -9 92 0 106 4 7 3 27 -2 46 -7 22 -6 38 0 44 7 7 7
20 0 41 -7 18 -7 33 -2 36 11 6 8 54 -3 72 -4 7 -3 14 2 17 11 7 9 106 -3 124
-4 7 -5 20 -2 30 4 12 -4 28 -24 47 -25 24 -34 27 -48 19 -9 -6 -18 -24 -19
-40 -1 -16 -4 -67 -8 -114 -3 -47 -7 -120 -8 -162 -1 -43 -5 -78 -9 -78 -4 0
-7 -29 -6 -64 0 -35 -2 -68 -6 -75 -4 -6 -4 -17 0 -23 9 -14 6 -77 -4 -93 -6
-9 -13 -100 -13 -150 1 -72 -1 -101 -9 -110 -6 -7 -6 -24 -1 -43 6 -19 6 -34
1 -37 -5 -3 -10 -36 -10 -73 -1 -71 -7 -187 -10 -187 -1 0 -3 -38 -5 -85 -1
-48 -7 -86 -13 -88 -17 -5 -22 13 -12 48 5 18 7 37 4 42 -9 15 -11 99 -2 104
7 5 3 62 -5 71 -3 2 -1 18 4 35 5 20 5 36 -1 43 -7 8 -6 23 1 44 8 22 8 36 1
43 -5 5 -6 23 -2 43 4 19 5 36 2 39 -7 8 -5 88 2 107 4 8 2 27 -3 41 -6 17 -6
29 1 36 7 7 8 23 1 51 -6 22 -7 43 -2 48 5 5 5 23 0 41 -6 19 -6 34 0 37 12 8
12 72 0 80 -6 3 -6 17 1 35 5 17 7 38 2 48 -4 9 -6 22 -4 27 1 6 3 70 4 144 1
98 -1 134 -11 138 -9 4 -9 9 0 25 10 17 8 23 -18 44 -57 46 -72 28 -73 -84 0
-45 -3 -86 -7 -91 -3 -5 -1 -12 5 -16 7 -4 7 -12 0 -25 -5 -10 -8 -50 -6 -89
2 -39 0 -73 -3 -77 -3 -3 -7 -42 -8 -87 -1 -45 -4 -97 -7 -114 -3 -18 -1 -35
5 -38 5 -4 6 -11 2 -18 -3 -6 -8 -48 -9 -94 -1 -46 -5 -97 -9 -112 -4 -17 -2
-32 5 -36 5 -3 7 -11 4 -17 -6 -10 -17 -109 -15 -138 3 -35 1 -78 -5 -115 -6
-34 -8 -37 -15 -19 -4 12 -4 39 1 60 5 21 6 42 2 48 -9 15 -11 96 -2 101 4 3
4 22 1 42 -4 21 -6 103 -5 183 0 80 -3 155 -7 168 -5 12 -5 22 0 22 11 0 9
150 -2 167 -4 6 -3 14 1 17 12 7 13 64 2 71 -5 3 -5 18 -1 33 9 32 3 100 -11
108 -5 3 -5 11 2 19 8 9 4 21 -16 44 -33 39 -69 39 -70 1 0 -14 -3 -30 -6 -35
-3 -6 -6 -53 -7 -105 -1 -91 -8 -235 -12 -235 -3 0 -11 -202 -10 -258 1 -33
-2 -64 -7 -70 -5 -7 -8 -67 -8 -134 1 -68 -2 -123 -5 -123 -10 0 -18 -73 -10
-85 8 -12 6 -74 -4 -98 -4 -9 -5 -32 -3 -49 3 -18 1 -48 -4 -66 -6 -22 -6 -38
0 -44 6 -6 7 -20 1 -37 -4 -14 -8 -33 -7 -41 3 -32 -2 -60 -11 -60 -5 0 -9 10
-10 23 -1 29 -2 196 -1 222 1 11 0 94 -1 185 -1 91 1 175 5 187 4 12 2 24 -3
27 -6 4 -8 36 -5 79 3 40 5 79 4 87 -1 8 -2 119 -3 245 -1 127 -5 235 -10 242
-4 6 -4 18 -1 26 8 23 -47 80 -69 71 -11 -4 -17 -15 -15 -28 1 -11 -1 -26 -5
-32 -7 -12 -8 -39 -5 -115 1 -25 -2 -50 -5 -56 -7 -12 -8 -47 -3 -113 2 -25 0
-50 -5 -56 -4 -5 -8 -48 -8 -95 -1 -141 -8 -327 -14 -336 -3 -5 -6 -47 -6 -94
-1 -143 -6 -234 -12 -244 -10 -16 -9 -74 1 -80 5 -3 6 -15 1 -29 -5 -12 -8
-50 -7 -84 1 -34 -2 -62 -5 -62 -4 0 -7 -39 -5 -86 2 -83 -5 -107 -26 -86 -6
6 -6 12 0 16 6 3 7 20 2 41 -4 19 -4 37 0 40 6 4 7 58 0 75 -4 12 -2 102 3
106 3 3 2 18 -3 34 -5 16 -4 32 2 38 6 6 6 22 0 46 -7 22 -7 48 -2 68 5 17 7
35 3 41 -3 6 -6 99 -5 206 1 108 2 203 1 211 0 8 -2 92 -3 185 -2 94 -4 172
-6 175 -1 3 -3 26 -4 51 -1 57 -28 91 -65 87 -25 -3 -26 -6 -27 -64 0 -34 -4
-65 -7 -70 -3 -6 -5 -50 -5 -99 0 -79 -8 -250 -12 -250 -1 0 -3 -38 -4 -85 -2
-47 -6 -100 -10 -118 -5 -20 -4 -38 3 -46 6 -7 8 -15 5 -19 -7 -7 -15 -71 -19
-167 -4 -94 -3 -90 -15 -90 -7 0 -9 27 -6 72 2 40 0 83 -5 95 -5 13 -4 25 1
28 12 7 14 85 3 85 -10 0 -9 78 1 87 10 10 7 83 -4 83 -6 0 -6 9 -1 23 4 12 7
126 6 252 -1 127 2 235 7 241 12 16 -1 44 -20 44 -13 0 -13 2 1 18 16 17 15
20 -11 45 -16 15 -38 27 -51 27 -18 0 -22 -5 -20 -27 1 -16 -2 -36 -6 -46 -4
-9 -5 -29 -2 -43 2 -15 0 -42 -5 -60 -5 -19 -6 -39 -2 -46 8 -13 9 -81 1 -94
-5 -8 -8 -71 -7 -139 1 -67 -2 -100 -9 -113 -5 -9 -5 -29 0 -45 5 -16 5 -35 1
-41 -10 -17 -11 -65 -1 -72 5 -3 7 -10 3 -15 -3 -6 -8 -65 -10 -132 -1 -67 -7
-123 -13 -125 -16 -5 -22 15 -11 44 6 15 8 35 4 43 -3 9 -7 236 -8 505 -1 386
-4 490 -14 494 -10 3 -10 7 -1 18 25 30 -45 90 -75 65 -10 -8 -13 -41 -13
-115 -1 -57 -3 -108 -6 -113 -3 -5 -5 -49 -5 -99 1 -49 -2 -99 -6 -111 -4 -12
-3 -24 2 -27 10 -6 8 -78 -2 -95 -4 -6 -5 -25 -1 -41 3 -16 2 -38 -4 -49 -8
-14 -8 -28 -1 -47 8 -19 8 -30 0 -38 -13 -13 -13 -73 0 -81 6 -4 6 -15 -1 -32
-5 -15 -8 -32 -5 -39 2 -6 1 -28 -4 -48 -4 -20 -5 -38 -1 -40 8 -5 6 -90 -3
-104 -6 -11 -7 -48 -2 -112 2 -25 0 -50 -6 -57 -6 -8 -6 -24 1 -47 9 -35 0
-58 -15 -34 -9 14 -10 71 -1 85 9 14 6 65 -5 79 -4 6 -4 24 1 41 5 16 5 36 0
45 -5 8 -5 29 0 45 5 17 5 36 1 44 -5 7 -7 48 -5 91 2 43 0 80 -5 83 -5 3 -5
19 0 37 5 17 7 35 4 40 -4 5 -7 81 -9 167 -1 87 -5 163 -9 169 -3 6 -1 14 4
17 7 4 9 19 5 35 -5 23 -15 254 -16 382 0 31 -39 61 -72 56 -21 -3 -22 -9 -25
-113 -1 -60 -5 -157 -8 -215 -3 -58 -5 -113 -5 -122 0 -10 1 -24 1 -30 1 -40
-9 -259 -13 -266 -2 -4 -4 -41 -3 -82 1 -41 -1 -89 -5 -106 -4 -18 -3 -37 1
-44 4 -7 3 -27 -3 -46 -8 -25 -7 -38 1 -46 7 -7 8 -17 2 -28 -5 -10 -8 -48 -7
-84 3 -65 -4 -89 -19 -65 -9 16 -11 171 -2 185 4 6 4 24 -1 40 -4 16 -6 65 -5
108 2 44 0 84 -3 89 -3 6 -5 33 -4 61 4 113 -5 341 -14 355 -4 8 -2 17 6 21
10 7 10 16 2 43 -6 20 -7 41 -2 50 6 9 5 26 -2 41 -9 19 -9 29 0 40 9 11 10
20 1 36 -6 11 -8 35 -4 55 5 27 2 36 -9 41 -13 5 -14 9 -4 26 10 16 8 23 -16
44 -32 28 -49 30 -67 9 -9 -11 -10 -18 -1 -28 6 -8 7 -17 3 -21 -6 -7 -10 -43
-11 -98 -1 -108 -2 -118 -11 -118 -12 0 -20 43 -10 55 6 7 6 24 0 44 -5 18 -6
39 -3 47 3 8 2 22 -2 32 -4 9 -8 28 -9 41 -3 42 -69 80 -82 46z m118 -331 c-7
-38 -27 -9 -23 35 1 10 4 11 15 2 7 -6 11 -22 8 -37z m-5 -91 c-1 -32 -6 -57
-11 -55 -16 4 -7 112 9 112 2 0 3 -26 2 -57z m1753 -53 c0 -5 -5 -10 -11 -10
-5 0 -7 5 -4 10 3 6 8 10 11 10 2 0 4 -4 4 -10z m-1750 -81 c0 -5 -4 -9 -10
-9 -5 0 -10 7 -10 16 0 8 5 12 10 9 6 -3 10 -10 10 -16z m1750 -9 c0 -5 -4
-10 -10 -10 -5 0 -10 5 -10 10 0 6 5 10 10 10 6 0 10 -4 10 -10z m-1755 -80
c3 -5 1 -10 -4 -10 -6 0 -11 5 -11 10 0 6 2 10 4 10 3 0 8 -4 11 -10z m1756
-5 c-1 -15 -24 -12 -29 3 -3 9 2 13 12 10 10 -1 17 -7 17 -13z m219 5 c0 -5
-4 -10 -10 -10 -5 0 -10 5 -10 10 0 6 5 10 10 10 6 0 10 -4 10 -10z m-8950
-39 c0 -6 -4 -13 -10 -16 -5 -3 -10 1 -10 9 0 9 5 16 10 16 6 0 10 -4 10 -9z
m8737 -47 c5 -15 -20 -24 -37 -14 -7 4 -9 13 -5 19 8 14 37 11 42 -5z m213 1
c0 -8 -7 -15 -15 -15 -16 0 -20 12 -8 23 11 12 23 8 23 -8z m-1970 -5 c0 -5
-2 -10 -4 -10 -3 0 -8 5 -11 10 -3 6 -1 10 4 10 6 0 11 -4 11 -10z m-6980 -29
c0 -5 -3 -17 -6 -26 -6 -14 -8 -14 -25 1 -15 14 -17 19 -7 26 17 11 38 10 38
-1z m6420 -1 c0 -5 -4 -10 -10 -10 -5 0 -10 5 -10 10 0 6 5 10 10 10 6 0 10
-4 10 -10z m242 -52 c-9 -9 -12 -7 -12 12 0 19 3 21 12 12 9 -9 9 -15 0 -24z
m2078 -9 c0 -3 -6 -12 -14 -18 -22 -18 -41 11 -25 40 11 22 12 22 25 4 8 -10
14 -22 14 -26z m216 16 c3 -8 3 -19 -1 -25 -10 -16 -35 7 -28 26 7 18 22 18
29 -1z m-446 -5 c0 -5 -2 -10 -4 -10 -3 0 -8 5 -11 10 -3 6 -1 10 4 10 6 0 11
-4 11 -10z m-2280 -30 c0 -5 -5 -10 -11 -10 -5 0 -7 5 -4 10 3 6 8 10 11 10 2
0 4 -4 4 -10z m195 1 c7 -12 -12 -24 -25 -16 -11 7 -4 25 10 25 5 0 11 -4 15
-9z m480 -11 c3 -5 -1 -10 -9 -10 -9 0 -16 5 -16 10 0 6 4 10 9 10 6 0 13 -4
16 -10z m2055 -35 c9 -11 9 -19 -3 -36 -15 -21 -15 -21 -26 -1 -11 21 -6 52 9
52 4 0 13 -7 20 -15z m-6606 -16 c-3 -5 -10 -7 -15 -3 -5 3 -7 10 -3 15 3 5
10 7 15 3 5 -3 7 -10 3 -15z m6161 11 c3 -5 1 -10 -4 -10 -6 0 -11 5 -11 10 0
6 2 10 4 10 3 0 8 -4 11 -10z m-9361 -9 c3 -5 -1 -14 -9 -21 -8 -7 -15 -10
-15 -7 0 3 -3 12 -6 21 -7 17 20 23 30 7z m7509 -11 c-3 -11 -7 -20 -9 -20 -2
0 -4 9 -4 20 0 11 4 20 9 20 5 0 7 -9 4 -20z m2695 -1 c-2 -6 -8 -10 -13 -10
-5 0 -11 4 -13 10 -2 6 4 11 13 11 9 0 15 -5 13 -11z m-2928 -19 c0 -14 -20
-22 -37 -16 -12 5 -13 9 -3 21 11 14 40 10 40 -5z m-195 0 c-3 -5 -13 -10 -21
-10 -8 0 -12 5 -9 10 3 6 13 10 21 10 8 0 12 -4 9 -10z m355 0 c0 -5 -5 -10
-11 -10 -5 0 -7 5 -4 10 3 6 8 10 11 10 2 0 4 -4 4 -10z m315 1 c7 -12 -12
-24 -25 -16 -11 7 -4 25 10 25 5 0 11 -4 15 -9z m-91 -50 c-9 -11 -21 13 -16
32 6 22 6 22 12 -3 4 -14 6 -27 4 -29z m416 45 c0 -11 -19 -15 -25 -6 -3 5 1
10 9 10 9 0 16 -2 16 -4z m-720 -31 c0 -8 -4 -15 -10 -15 -5 0 -10 7 -10 15 0
8 5 15 10 15 6 0 10 -7 10 -15z m1630 5 c0 -5 -4 -10 -10 -10 -5 0 -10 5 -10
10 0 6 5 10 10 10 6 0 10 -4 10 -10z m-5784 -11 c10 -17 -13 -36 -27 -22 -12
12 -4 33 11 33 5 0 12 -5 16 -11z m3962 -34 c0 -25 -5 -45 -9 -45 -8 0 -17 78
-10 86 14 13 21 -1 19 -41z m2192 25 c0 -5 -4 -10 -10 -10 -5 0 -10 5 -10 10
0 6 5 10 10 10 6 0 10 -4 10 -10z m855 0 c3 -5 1 -19 -6 -32 -11 -21 -12 -21
-25 -3 -10 14 -11 22 -3 32 13 15 26 17 34 3z m-3139 -47 c-6 -14 -9 -15 -16
-4 -11 19 -1 46 13 32 5 -5 7 -18 3 -28z m194 -8 c-13 -16 -15 -15 -27 1 -10
13 -10 21 -1 31 10 12 14 12 26 -1 13 -13 13 -17 2 -31z m174 14 c-8 -14 -24
-10 -24 6 0 9 6 12 15 9 8 -4 12 -10 9 -15z m146 7 c0 -3 -4 -8 -10 -11 -5 -3
-10 -1 -10 4 0 6 5 11 10 11 6 0 10 -2 10 -4z m165 -5 c7 -12 -12 -24 -25 -16
-11 7 -4 25 10 25 5 0 11 -4 15 -9z m135 -1 c0 -5 -5 -10 -11 -10 -5 0 -7 5
-4 10 3 6 8 10 11 10 2 0 4 -4 4 -10z m190 2 c0 -13 -12 -22 -22 -16 -10 6 -1
24 13 24 5 0 9 -4 9 -8z m910 -33 c0 -5 -4 -9 -10 -9 -5 0 -10 7 -10 16 0 8 5
12 10 9 6 -3 10 -10 10 -16z m-3790 -4 c0 -8 -4 -15 -9 -15 -13 0 -22 16 -14
24 11 11 23 6 23 -9z m2160 5 c0 -5 -4 -10 -10 -10 -5 0 -10 5 -10 10 0 6 5
10 10 10 6 0 10 -4 10 -10z m1998 -11 c-2 -6 -8 -10 -13 -10 -5 0 -11 4 -13
10 -2 6 4 11 13 11 9 0 15 -5 13 -11z m642 -9 c0 -5 -4 -10 -10 -10 -5 0 -10
5 -10 10 0 6 5 10 10 10 6 0 10 -4 10 -10z m1140 0 c0 -5 -4 -10 -10 -10 -5 0
-10 5 -10 10 0 6 5 10 10 10 6 0 10 -4 10 -10z m-3868 -51 c-16 -19 -17 -19
-36 1 -20 20 -20 20 -1 34 18 13 22 13 37 -1 15 -14 15 -16 0 -34z m-187 31
c4 -6 1 -18 -6 -26 -11 -13 -14 -13 -27 0 -8 8 -11 19 -8 25 9 14 33 14 41 1z
m353 -11 c-2 -6 -8 -10 -13 -10 -5 0 -11 4 -13 10 -2 6 4 11 13 11 9 0 15 -5
13 -11z m146 -10 c-3 -5 -10 -7 -15 -3 -5 3 -7 10 -3 15 3 5 10 7 15 3 5 -3 7
-10 3 -15z m172 10 c10 -17 -13 -36 -27 -22 -12 12 -4 33 11 33 5 0 12 -5 16
-11z m322 -10 c-2 -6 -8 -10 -13 -10 -5 0 -11 4 -13 10 -2 6 4 11 13 11 9 0
15 -5 13 -11z m512 -3 c0 -3 -4 -8 -10 -11 -5 -3 -10 -1 -10 4 0 6 5 11 10 11
6 0 10 -2 10 -4z m-3386 -12 c12 -5 13 -9 3 -25 -6 -10 -15 -19 -18 -19 -10 0
-20 30 -13 41 6 11 8 11 28 3z m3790 -3 c3 -5 0 -11 -8 -14 -15 -6 -26 1 -26
15 0 11 27 10 34 -1z m365 -28 c-8 -9 -16 -10 -22 -4 -13 13 0 31 19 24 11 -4
12 -8 3 -20z m1788 -14 c-10 -16 -13 -16 -20 -3 -5 8 -6 22 -3 31 5 12 9 13
21 3 11 -9 12 -16 2 -31z m-1147 21 c0 -5 -4 -10 -10 -10 -5 0 -10 5 -10 10 0
6 5 10 10 10 6 0 10 -4 10 -10z m-2560 -34 c0 -8 -4 -17 -9 -21 -12 -7 -24 12
-16 25 9 15 25 12 25 -4z m141 -9 c-13 -13 -26 -3 -16 12 3 6 11 8 17 5 6 -4
6 -10 -1 -17z m175 12 c3 -6 0 -17 -8 -25 -13 -13 -16 -13 -28 1 -12 14 -11
18 1 26 19 12 26 11 35 -2z m134 -9 c0 -5 -4 -10 -10 -10 -5 0 -10 5 -10 10 0
6 5 10 10 10 6 0 10 -4 10 -10z m190 -4 c0 -8 -4 -17 -9 -21 -12 -7 -24 12
-16 25 9 15 25 12 25 -4z m1365 -27 c-7 -20 -8 -21 -17 -5 -5 9 -7 24 -4 33
10 26 29 -1 21 -28z m-865 21 c0 -5 -5 -10 -11 -10 -5 0 -7 5 -4 10 3 6 8 10
11 10 2 0 4 -4 4 -10z m1340 0 c0 -5 -4 -10 -10 -10 -5 0 -10 5 -10 10 0 6 5
10 10 10 6 0 10 -4 10 -10z m-1140 -10 c0 -5 -2 -10 -4 -10 -3 0 -8 5 -11 10
-3 6 -1 10 4 10 6 0 11 -4 11 -10z m205 -8 c0 -18 -20 -15 -23 4 -3 10 1 15
10 12 7 -3 13 -10 13 -16z m170 -2 c3 -5 1 -10 -4 -10 -6 0 -11 5 -11 10 0 6
2 10 4 10 3 0 8 -4 11 -10z m200 -30 c-9 -15 -22 -12 -29 7 -9 21 16 37 27 17
4 -8 5 -19 2 -24z m646 7 c-13 -13 -26 -3 -16 12 3 6 11 8 17 5 6 -4 6 -10 -1
-17z m-2563 -44 c-10 -12 -13 -12 -20 1 -13 23 0 40 18 25 11 -9 12 -15 2 -26z
m316 20 c4 -9 1 -23 -7 -30 -12 -12 -16 -12 -27 1 -10 13 -10 19 0 31 16 19
26 19 34 -2z m1319 -23 l-7 -25 -6 25 c-8 28 -2 46 11 33 5 -5 5 -20 2 -33z
m-1489 24 c18 -7 12 -24 -10 -24 -8 0 -14 7 -14 15 0 17 2 18 24 9z m316 -15
c0 -5 -7 -9 -15 -9 -15 0 -20 12 -9 23 8 8 24 -1 24 -14z m174 15 c21 -8 20
-20 -1 -28 -17 -7 -36 12 -27 26 6 10 8 10 28 2z m-97 -62 c-15 -19 -18 -9
-10 29 6 32 7 33 13 9 4 -14 2 -31 -3 -38z m283 48 c0 -5 -4 -10 -10 -10 -5 0
-10 5 -10 10 0 6 5 10 10 10 6 0 10 -4 10 -10z m1183 3 c3 -5 1 -17 -4 -28 -4
-11 -8 -15 -8 -8 -1 6 -4 18 -7 27 -6 16 11 23 19 9z m247 -3 c0 -5 -5 -10
-11 -10 -5 0 -7 5 -4 10 3 6 8 10 11 10 2 0 4 -4 4 -10z m-1110 -10 c0 -5 -4
-10 -10 -10 -5 0 -10 5 -10 10 0 6 5 10 10 10 6 0 10 -4 10 -10z m200 0 c0 -5
-4 -10 -10 -10 -5 0 -10 5 -10 10 0 6 5 10 10 10 6 0 10 -4 10 -10z m209 -4
c8 -10 8 -16 -3 -25 -10 -9 -16 -8 -26 3 -12 15 -6 36 9 36 5 0 14 -6 20 -14z
m-6057 -11 c0 -5 -5 -11 -11 -13 -6 -2 -11 4 -11 13 0 9 5 15 11 13 6 -2 11
-8 11 -13z m6423 -5 c4 -6 1 -18 -6 -26 -12 -14 -14 -14 -26 2 -7 9 -10 21 -7
25 7 12 31 11 39 -1z m-3771 -9 c3 -5 -1 -14 -9 -21 -8 -7 -15 -10 -15 -7 0 3
-3 12 -6 21 -7 17 20 23 30 7z m2756 0 c0 -12 -20 -25 -27 -18 -7 7 6 27 18
27 5 0 9 -4 9 -9z m1661 -6 c-1 -15 -24 -12 -29 3 -3 9 2 13 12 10 10 -1 17
-7 17 -13z m-930 -28 c-13 -13 -26 -3 -16 12 3 6 11 8 17 5 6 -4 6 -10 -1 -17z
m-1628 6 c4 -3 2 -12 -4 -20 -9 -10 -15 -10 -25 -2 -8 6 -11 15 -8 20 6 11 28
12 37 2z m143 -4 c10 -17 -13 -36 -27 -22 -12 12 -4 33 11 33 5 0 12 -5 16
-11z m489 -30 c-7 -22 -8 -22 -21 -4 -10 14 -11 22 -2 32 16 20 32 0 23 -28z
m-183 16 c0 -5 -5 -11 -11 -13 -6 -2 -11 4 -11 13 0 9 5 15 11 13 6 -2 11 -8
11 -13z m1542 -1 c3 -8 2 -12 -4 -9 -6 3 -10 10 -10 16 0 14 7 11 14 -7z
m-1454 -14 c0 -11 -4 -20 -10 -20 -5 0 -10 9 -10 20 0 11 5 20 10 20 6 0 10
-9 10 -20z m280 16 c0 -11 -19 -15 -25 -6 -3 5 1 10 9 10 9 0 16 -2 16 -4z
m230 -6 c0 -5 -4 -10 -10 -10 -5 0 -10 5 -10 10 0 6 5 10 10 10 6 0 10 -4 10
-10z m95 1 c7 -12 -12 -24 -25 -16 -11 7 -4 25 10 25 5 0 11 -4 15 -9z m399
-8 c9 -24 -9 -39 -29 -23 -12 10 -13 16 -4 26 15 19 25 18 33 -3z m-6044 -22
c0 -28 -12 -33 -28 -10 -12 18 -12 23 -1 29 17 11 29 3 29 -19z m5840 19 c0
-5 -4 -10 -9 -10 -6 0 -13 5 -16 10 -3 6 1 10 9 10 9 0 16 -4 16 -10z m371
-13 c-1 -12 -15 -9 -19 4 -3 6 1 10 8 8 6 -3 11 -8 11 -12z m204 3 c3 -5 1
-19 -6 -31 -10 -19 -12 -20 -26 -6 -9 9 -13 23 -10 31 7 18 32 21 42 6z
m-1021 -21 c-3 -5 -10 -7 -15 -3 -5 3 -7 10 -3 15 3 5 10 7 15 3 5 -3 7 -10 3
-15z m1671 11 c4 -6 1 -18 -6 -26 -11 -14 -13 -14 -21 0 -15 26 12 51 27 26z
m-1512 -17 c3 -5 0 -19 -6 -33 l-10 -25 -7 25 c-7 27 -4 40 10 40 5 0 11 -3
13 -7z m-1048 -13 c7 -11 -12 -40 -25 -40 -11 0 -21 30 -14 41 7 12 31 11 39
-1z m139 -7 c8 -21 -10 -41 -24 -27 -11 11 -3 44 10 44 4 0 11 -8 14 -17z
m1478 -5 c-7 -7 -12 -8 -12 -2 0 14 12 26 19 19 2 -3 -1 -11 -7 -17z m-1162
-14 c-7 -7 -18 -10 -26 -7 -11 4 -12 9 -4 19 7 7 18 10 26 7 11 -4 12 -9 4
-19z m179 17 c12 -8 12 -12 2 -25 -17 -20 -27 -20 -35 0 -11 29 6 42 33 25z
m171 -11 c0 -5 -4 -10 -10 -10 -5 0 -10 5 -10 10 0 6 5 10 10 10 6 0 10 -4 10
-10z m330 -16 c0 -14 -12 -19 -23 -8 -9 9 4 35 14 28 5 -3 9 -12 9 -20z m410
-8 c0 -7 -5 -17 -12 -24 -9 -9 -14 -7 -23 5 -17 23 2 58 22 41 7 -6 13 -16 13
-22z m445 24 c3 -5 1 -10 -4 -10 -6 0 -11 5 -11 10 0 6 2 10 4 10 3 0 8 -4 11
-10z m-655 -8 c0 -13 -12 -22 -22 -16 -10 6 -1 24 13 24 5 0 9 -4 9 -8z m570
-18 c11 -12 10 -18 -3 -32 -16 -15 -18 -15 -34 0 -13 14 -14 20 -3 32 7 9 16
16 20 16 4 0 13 -7 20 -16z m-1180 -15 c0 -5 -4 -9 -10 -9 -5 0 -10 7 -10 16
0 8 5 12 10 9 6 -3 10 -10 10 -16z m980 11 c0 -5 -4 -10 -10 -10 -5 0 -10 5
-10 10 0 6 5 10 10 10 6 0 10 -4 10 -10z m82 -25 c3 -25 1 -31 -8 -24 -6 5 -9
20 -6 34 6 34 9 31 14 -10z m775 19 c1 -5 -2 -16 -7 -24 -8 -13 -12 -13 -27 3
-16 15 -16 19 -3 27 17 11 32 8 37 -6z m-5132 -14 c-14 -15 -21 -17 -26 -8
-11 17 -2 28 23 28 21 0 21 -1 3 -20z m3610 -8 c-8 -8 -25 10 -19 20 4 6 9 5
15 -3 4 -7 6 -15 4 -17z m-1045 -7 c9 -11 9 -19 -3 -36 l-15 -21 -12 22 c-20
38 4 67 30 35z m149 -9 c9 -10 8 -15 -4 -20 -17 -6 -45 2 -45 13 0 23 32 28
49 7z m304 -23 c-4 -10 -9 -11 -19 -2 -11 9 -12 15 -3 26 14 17 31 -1 22 -24z
m185 25 c8 -8 8 -17 1 -30 -10 -19 -12 -19 -30 -2 -14 13 -16 20 -8 31 14 16
22 16 37 1z m173 -21 c-13 -13 -26 -3 -16 12 3 6 11 8 17 5 6 -4 6 -10 -1 -17z
m154 3 c3 -5 1 -10 -4 -10 -6 0 -11 5 -11 10 0 6 2 10 4 10 3 0 8 -4 11 -10z
m178 3 c4 -3 2 -12 -4 -20 -9 -10 -15 -10 -25 -2 -8 6 -11 15 -8 20 6 11 28
12 37 2z m196 -20 c-8 -9 -16 -10 -22 -4 -13 13 0 31 19 24 11 -4 12 -8 3 -20z
m208 11 c14 -14 14 -16 -3 -29 -16 -12 -22 -11 -37 3 -17 16 -17 17 -1 29 22
16 22 16 41 -3z m164 -19 c1 -17 -18 -17 -25 0 -4 11 -1 15 10 13 8 -2 15 -7
15 -13z m848 -31 c-14 -14 -17 -14 -29 0 -10 13 -10 19 0 32 12 14 15 14 29 0
14 -15 14 -17 0 -32z m-1829 15 c0 -6 -4 -7 -10 -4 -5 3 -10 11 -10 16 0 6 5
7 10 4 6 -3 10 -11 10 -16z m310 -5 c0 -8 -5 -12 -10 -9 -6 4 -8 11 -5 16 9
14 15 11 15 -7z m2370 6 c0 -5 -4 -10 -10 -10 -5 0 -10 5 -10 10 0 6 5 10 10
10 6 0 10 -4 10 -10z m-10445 -19 c-3 -6 -11 -11 -17 -11 -6 0 -6 6 2 15 14
17 26 13 15 -4z m7185 -16 c0 -7 -6 -18 -14 -24 -11 -10 -16 -8 -24 5 -13 24
7 58 25 42 7 -6 13 -16 13 -23z m1279 -12 c-5 -14 -7 -34 -4 -43 3 -10 1 -21
-5 -25 -11 -7 -11 -4 -14 60 -2 50 2 59 19 45 10 -9 11 -18 4 -37z m-2937 15
c-7 -7 -12 -8 -12 -2 0 14 12 26 19 19 2 -3 -1 -11 -7 -17z m1515 11 c9 -9 6
-16 -10 -29 -21 -17 -22 -17 -36 2 -12 17 -12 21 0 29 19 12 33 11 46 -2z
m634 -5 c17 -16 17 -17 -4 -34 -21 -17 -22 -17 -35 1 -11 16 -11 23 -2 34 16
19 19 19 41 -1z m3408 4 c0 -7 -4 -22 -9 -33 -7 -19 -8 -19 -18 5 -6 17 -6 27
2 32 17 11 26 10 25 -4z m-3589 -8 c13 -9 13 -11 0 -20 -19 -12 -27 -12 -35 0
-7 11 2 30 13 30 4 0 14 -5 22 -10z m1080 -55 c-19 -19 -20 -19 -34 0 -12 16
-12 22 1 42 l15 23 18 -23 c18 -21 18 -23 0 -42z m242 43 c-7 -7 -12 -8 -12
-2 0 14 12 26 19 19 2 -3 -1 -11 -7 -17z m-970 -3 c0 -5 -5 -11 -11 -13 -6 -2
-11 4 -11 13 0 9 5 15 11 13 6 -2 11 -8 11 -13z m327 1 c8 -10 8 -16 -3 -25
-10 -9 -16 -8 -26 3 -12 15 -6 36 9 36 5 0 14 -6 20 -14z m-169 -6 c0 -5 -4
-10 -10 -10 -5 0 -10 5 -10 10 0 6 5 10 10 10 6 0 10 -4 10 -10z m363 4 c3 -3
3 -12 0 -20 -4 -11 -9 -12 -19 -3 -8 6 -11 15 -8 20 6 10 18 12 27 3z m372
-34 c-5 -8 -11 -8 -21 1 -12 10 -12 14 -2 20 16 10 33 -5 23 -21z m-8730 -10
c3 -5 0 -19 -9 -31 l-14 -21 -12 22 c-10 18 -9 24 1 31 18 11 26 11 34 -1z
m7035 -31 c0 -3 -7 -12 -15 -19 -13 -10 -19 -10 -35 5 -19 17 -19 18 3 36 20
17 23 17 35 2 6 -9 12 -20 12 -24z m133 -21 c-17 -19 -17 -19 -34 4 -16 21
-16 23 -1 34 14 10 20 9 35 -3 16 -15 16 -17 0 -35z m897 42 c0 -5 -4 -10 -10
-10 -5 0 -10 5 -10 10 0 6 5 10 10 10 6 0 10 -4 10 -10z m-581 -14 c9 -10 8
-16 -4 -26 -20 -16 -38 -1 -29 23 8 21 18 22 33 3z m354 -11 c8 -19 -13 -31
-23 -14 -9 14 -4 29 10 29 4 0 10 -7 13 -15z m325 2 c7 -8 7 -17 -2 -30 -7 -9
-16 -17 -19 -17 -9 0 -16 30 -11 45 7 18 18 19 32 2z m-178 -7 c0 -5 -4 -10
-10 -10 -5 0 -10 5 -10 10 0 6 5 10 10 10 6 0 10 -4 10 -10z m376 -1 c10 -17
-13 -36 -27 -22 -12 12 -4 33 11 33 5 0 12 -5 16 -11z m379 -18 c3 -5 1 -13
-5 -16 -15 -9 -43 3 -35 15 8 13 32 13 40 1z m-6565 -11 c0 -5 -4 -10 -10 -10
-5 0 -10 5 -10 10 0 6 5 10 10 10 6 0 10 -4 10 -10z m5313 -61 c-6 -6 -21 -8
-33 -4 -21 7 -21 8 -4 26 16 18 19 18 33 4 11 -11 12 -18 4 -26z m960 34 c3
-5 1 -17 -3 -28 -6 -17 -7 -16 -12 8 -5 25 5 37 15 20z m-609 -22 c3 -5 -1
-14 -9 -21 -8 -7 -15 -10 -15 -7 0 3 -3 12 -6 21 -7 17 20 23 30 7z m146 -12
c0 -6 -4 -7 -10 -4 -5 3 -10 11 -10 16 0 6 5 7 10 4 6 -3 10 -11 10 -16z m178
8 c7 -8 6 -18 -4 -31 -14 -20 -14 -20 -29 0 -18 24 -18 31 -2 37 20 8 24 8 35
-6z m201 -1 c10 -12 8 -17 -7 -25 -25 -13 -49 8 -30 27 16 16 23 15 37 -2z
m-109 -21 c0 -8 0 -18 1 -22 0 -4 -4 -9 -10 -11 -6 -2 -11 8 -11 22 0 14 5 26
10 26 6 0 10 -7 10 -15z m479 1 c9 -10 8 -15 -2 -19 -19 -7 -41 8 -33 22 10
15 21 14 35 -3z m-6559 -11 c0 -8 -4 -15 -10 -15 -5 0 -10 7 -10 15 0 8 5 15
10 15 6 0 10 -7 10 -15z m5317 -60 c-6 -17 -37 -18 -43 -1 -3 9 0 23 7 32 12
14 14 14 26 -2 7 -10 12 -23 10 -29z m953 20 c0 -8 -4 -15 -10 -15 -5 0 -10 7
-10 15 0 8 5 15 10 15 6 0 10 -7 10 -15z m-604 -6 c10 -17 -13 -36 -27 -22
-12 12 -4 33 11 33 5 0 12 -5 16 -11z m145 -14 c-1 -15 -24 -12 -29 3 -3 9 2
13 12 10 10 -1 17 -7 17 -13z m374 5 c4 -6 1 -18 -6 -26 -11 -13 -14 -13 -27
0 -8 8 -11 19 -8 25 9 14 33 14 41 1z m369 -17 c4 -9 3 -20 -2 -25 -11 -11
-36 17 -27 32 9 15 22 12 29 -7z m-6534 -13 c0 -13 -26 -19 -41 -9 -12 8 -12
10 0 18 15 10 41 4 41 -9z m6060 -12 c0 -5 -4 -8 -10 -8 -5 0 -10 10 -10 23 0
18 2 19 10 7 5 -8 10 -18 10 -22z m-770 -59 c-11 -20 -13 -20 -31 -3 -18 16
-17 24 4 52 17 21 41 -22 27 -49z m955 41 c3 -5 1 -10 -4 -10 -6 0 -11 5 -11
10 0 6 2 10 4 10 3 0 8 -4 11 -10z m-602 -36 c-7 -18 -17 -18 -32 -1 -8 10 -7
17 1 25 15 15 39 -3 31 -24z m142 -4 c-6 -9 -9 -9 -16 1 -10 17 0 34 13 21 6
-6 7 -16 3 -22z m379 14 c4 -9 1 -23 -5 -31 -10 -11 -15 -11 -31 4 -18 16 -18
18 -2 30 23 17 31 16 38 -3z m-6167 -25 c2 -8 -1 -21 -7 -29 -8 -13 -11 -12
-24 5 -10 14 -11 24 -4 33 13 15 32 11 35 -9z m6542 7 c10 -12 8 -17 -7 -25
-20 -10 -32 1 -32 30 0 14 26 11 39 -5z m-484 -36 c3 -5 1 -10 -4 -10 -6 0
-11 5 -11 10 0 6 2 10 4 10 3 0 8 -4 11 -10z m-410 -20 c4 -6 1 -18 -6 -26
-11 -13 -14 -13 -27 0 -8 8 -11 19 -8 25 9 14 33 14 41 1z m147 -22 c-5 -5
-16 -6 -26 -2 -13 5 -14 9 -5 20 9 11 15 12 26 3 8 -7 10 -16 5 -21z m371 14
c15 -16 15 -19 -4 -30 -29 -19 -53 1 -36 29 15 24 20 24 40 1z m367 -13 c9
-15 8 -24 -1 -35 -10 -12 -14 -12 -26 6 -12 17 -12 24 -3 35 16 19 17 19 30
-6z m-887 -64 c18 -13 18 -14 -3 -25 -28 -15 -57 5 -39 26 14 17 19 17 42 -1z
m142 -5 c11 -17 -5 -32 -21 -19 -7 6 -11 15 -8 20 7 12 21 11 29 -1z m754 -47
c-6 -7 -17 -13 -24 -13 -19 0 -27 30 -14 47 10 11 15 11 30 -3 14 -13 16 -20
8 -31z m-899 -58 c-9 -11 -16 -12 -30 -3 -17 11 -17 14 -3 35 l16 24 14 -21
c11 -16 12 -24 3 -35z m-3210 41 c0 -2 -7 -9 -15 -16 -13 -11 -14 -10 -9 4 5
14 24 23 24 12z m3354 -22 c9 -22 2 -27 -24 -19 -17 5 -19 10 -9 21 15 18 25
18 33 -2z m746 -20 c11 -12 10 -18 -3 -32 -16 -15 -18 -15 -31 3 -10 14 -11
24 -4 32 14 17 23 16 38 -3z m-892 -55 c11 -18 11 -24 -4 -40 -17 -19 -17 -19
-29 3 -8 17 -8 28 -1 41 14 22 18 22 34 -4z m144 -31 c-16 -16 -35 3 -26 26 6
16 8 16 22 2 13 -12 14 -18 4 -28z m748 1 c9 -15 8 -24 -1 -35 -15 -19 -22
-18 -37 7 -10 16 -10 24 -1 35 16 19 26 18 39 -7z m-740 -68 c0 -3 -4 -12 -9
-20 -8 -12 -12 -13 -25 -2 -12 10 -13 17 -5 27 10 12 39 9 39 -5z m-11 -109
c-13 -21 -13 -21 -27 -1 -11 16 -11 23 -1 35 11 13 14 13 27 1 11 -12 12 -18
1 -35z m-8207 -9 c-9 -14 -10 -14 -16 5 -9 29 3 51 16 28 5 -10 5 -23 0 -33z
m8211 -48 c18 -13 18 -14 -3 -25 -28 -15 -57 5 -39 26 14 17 19 17 42 -1z m-4
-84 c16 -28 -14 -51 -36 -28 -13 13 -14 19 -3 31 17 21 27 20 39 -3z m-5 -116
c-16 -11 -22 -11 -37 3 -17 15 -17 17 5 33 21 17 23 16 36 -2 12 -18 12 -22
-4 -34z"/>
</g>
</svg>
